<?xml version="1.0" encoding="utf-8"?>
<!-- Generator: Adobe Illustrator 22.1.0, SVG Export Plug-In . SVG Version: 6.00 Build 0)  -->
<svg version="1.1" id="Layer_1" xmlns="http://www.w3.org/2000/svg" xmlns:xlink="http://www.w3.org/1999/xlink" x="0px" y="0px"
	 viewBox="0 0 448 448" style="enable-background:new 0 0 448 448;" xml:space="preserve">
<style type="text/css">
	.st0{display:none;}
	.st1{display:none;opacity:0.3;fill:#FFFFFF;enable-background:new    ;}
	.st2{fill:#FFFFFF;}
	.st3{fill:#03629F;}
	.st4{opacity:0.3;fill:#FFFFFF;enable-background:new    ;}
	.st5{display:none;fill:#03629F;}
	.st6{display:none;fill:none;}
</style>
<polygon class="st0" points="238.9,236.2 315.1,236.2 277,144.6 "/>
<polygon class="st1" points="407.3,341.8 358.6,341.8 332.5,276.4 221.9,276.4 195.6,341.8 146.9,341.8 277,49.5 "/>
<rect x="127.2" y="62" class="st2" width="207.8" height="304"/>
<path class="st3" d="M222.1,0.1L14.3,74.5L46,350.1l176,97.9l176-97.9l31.8-275.7L222.1,0.1z M317.6,120.7H192.1v72h118.1v38.6
	H192.1v115.1h-47.6V82.1h173.3v38.6H317.6z"/>
<g id="Layer_2_1_">
	<polyline class="st4" points="222.1,448 398,350.1 429.9,74.5 222.3,0.2 222.3,0.2 	"/>
	<polyline class="st5" points="222.3,0.2 222.1,0.1 14.3,74.5 46,350.1 222.1,448 	"/>
	<polyline class="st5" points="222.3,221.1 222.3,445 222.3,0.2 	"/>
	<line class="st6" x1="222.3" y1="0.2" x2="222.3" y2="221.1"/>
	<line class="st6" x1="222.1" y1="0.1" x2="14.3" y2="74.5"/>
</g>
</svg>
