<?xml version="1.0" encoding="utf-8"?>
<!-- Generator: Adobe Illustrator 22.1.0, SVG Export Plug-In . SVG Version: 6.00 Build 0)  -->
<svg version="1.1" xmlns="http://www.w3.org/2000/svg" xmlns:xlink="http://www.w3.org/1999/xlink" x="0px" y="0px"
	 viewBox="0 0 562 386.7" style="enable-background:new 0 0 562 386.7;" xml:space="preserve">
<style type="text/css">
	.st0{display:none;}
	.st1{display:inline;fill:#074E68;}
	.st2{display:none;opacity:0.22;}
	.st3{display:inline;}
	.st4{opacity:0.18;}
	.st5{fill:#638089;}
	.st6{opacity:0.35;}
	.st7{fill:#8299A1;}
	.st8{opacity:0.45;}
	.st9{opacity:0.26;}
	.st10{opacity:0.32;}
	.st11{fill:#A1B3B8;}
	.st12{opacity:0.52;}
	.st13{fill:#C1CCD0;}
	.st14{display:inline;fill:#5B5A5D;stroke:#737F82;stroke-width:4;stroke-miterlimit:10;}
	.st15{opacity:0.2;enable-background:new    ;}
	.st16{display:inline;opacity:0.2;}
	.st17{opacity:0.1;clip-path:url(#SVGID_2_);}
	.st18{display:none;fill:#737F82;}
	.st19{fill:#EAF6FD;}
	.st20{fill:#5B5A5C;}
	.st21{fill:#737F83;}
	.st22{fill:#CDEAF5;}
	.st23{fill:#A0D5E9;}
	.st24{fill:#84C0CE;}
	.st25{fill:#B2E1EE;}
	.st26{fill:#FFFFFF;}
	.st27{fill:#4E4D50;}
	.st28{fill:#B1DFF0;}
	.st29{fill:#BFE5F3;}
	.st30{fill:#AADAE2;}
	.st31{fill:#91CADB;}
	.st32{display:none;fill:#FFFFFF;}
	.st33{clip-path:url(#SVGID_5_);}
	.st34{display:none;clip-path:url(#SVGID_7_);}
	.st35{opacity:0.1;clip-path:url(#SVGID_9_);}
	.st36{clip-path:url(#SVGID_7_);fill:#CDEAF5;}
	.st37{clip-path:url(#SVGID_7_);}
	.st38{clip-path:url(#SVGID_7_);fill:#FFFFFF;}
	.st39{font-family:'ProximaNovaA-Bold';}
	.st40{font-size:32px;}
	.st41{display:inline;fill:#50808E;}
	.st42{display:inline;fill:#6D98A4;}
	.st43{display:inline;fill:#8AADB6;}
	.st44{display:inline;fill:#324045;}
	.st45{display:inline;fill:#638089;}
	.st46{display:inline;opacity:0.5;fill:#F3F3F3;enable-background:new    ;}
	.st47{display:inline;fill:#4A6067;}
	.st48{display:none;opacity:0.3;fill:#FFFFFF;enable-background:new    ;}
	.st49{fill:#03629F;}
	.st50{opacity:0.3;fill:#FFFFFF;enable-background:new    ;}
	.st51{display:none;fill:#03629F;}
	.st52{display:none;fill:none;}
</style>
<g id="Layer_1" class="st0">
	<rect x="-189.7" y="-32.3" class="st1" width="900" height="453"/>
</g>
<g id="Layer_6" class="st2">
	<g class="st3">
		<g class="st4">
			<path class="st5" d="M26.6,115.9V86.7c2.6-1.4,4.3-4.1,4.3-7.2c0-4.6-3.7-8.3-8.3-8.3c-2.8,0-5.3,1.4-6.8,3.6h-30
				c-1.5-2.2-4-3.6-6.8-3.6c-4.6,0-8.3,3.7-8.3,8.3c0,3.1,1.7,5.8,4.3,7.2v29.2c-2.6,1.4-4.3,4.1-4.3,7.2c0,4.6,3.7,8.3,8.3,8.3
				c3.5,0,6.4-2.1,7.7-5.2H15c1.2,3,4.2,5.2,7.7,5.2c4.6,0,8.3-3.7,8.3-8.3C30.9,120.1,29.2,117.3,26.6,115.9z M-17,115.9V86.7
				c1.6-0.9,2.9-2.3,3.7-4h28.4c0.7,1.7,2,3.1,3.7,4v29.2c-1.1,0.6-2,1.4-2.8,2.4h-30.2C-14.9,117.4-15.9,116.5-17,115.9z"/>
		</g>
		<g class="st6">
			<path class="st7" d="M283.6,114.9L283.6,114.9l-7.4-12.9l0,0c-0.2-0.4-0.6-0.7-1.1-0.7c-0.5,0-1,0.3-1.2,0.8l-7.3,12.6
				c-0.2,0.2-0.3,0.5-0.3,0.8c0,0.7,0.6,1.3,1.3,1.3h1.9c-3.2,3.5-7.4,5.9-12.2,6.8v-23.1h7.2c0.7,0,1.3-0.6,1.3-1.3l0,0v-5.4v0
				c0-0.7-0.6-1.3-1.3-1.3h0h-7.2v-4.2c3.1-1.5,5.2-4.6,5.2-8.3c0-5.1-4.1-9.2-9.2-9.2s-9.2,4.1-9.2,9.2c0,3.7,2.1,6.8,5.2,8.3v4.2
				h-7.2c0,0,0,0,0,0c-0.7,0-1.3,0.6-1.3,1.2h0v5.4h0c0,0.7,0.6,1.3,1.2,1.3h7.2v23.1c-4.8-0.9-9.1-3.3-12.2-6.8h1.9
				c0.7,0,1.3-0.6,1.3-1.3c0-0.2-0.1-0.4-0.2-0.6l0,0l-7.4-12.9l0,0c-0.2-0.4-0.6-0.7-1.1-0.7c-0.5,0-1,0.3-1.2,0.8l-7.3,12.6
				c-0.2,0.2-0.3,0.5-0.3,0.8c0,0.7,0.6,1.3,1.3,1.3h3.3c5.1,9,14.8,15.1,25.9,15.1c11.1,0,20.7-6.1,25.9-15.1h3.3
				c0.7,0,1.3-0.6,1.3-1.3C283.8,115.3,283.8,115.1,283.6,114.9z M253.4,85.2c-2.9,0-5.2-2.3-5.2-5.2c0-2.9,2.3-5.2,5.2-5.2
				c2.9,0,5.2,2.3,5.2,5.2C258.5,82.9,256.2,85.2,253.4,85.2z"/>
		</g>
		<g class="st6">
			<path class="st7" d="M194,73.7h-49.5c-1.5,0-2.7,1.2-2.7,2.7v2.5c0,1.5,1.2,2.7,2.7,2.7H194c1.5,0,2.7-1.2,2.7-2.7v-2.5
				C196.7,74.9,195.5,73.7,194,73.7z"/>
			<path class="st7" d="M194,89.5L194,89.5h-36.2c-1.5,0-2.7,1.2-2.7,2.7v2.5c0,1.5,1.2,2.7,2.7,2.7H194l0,0c1.5,0,2.7-1.2,2.7-2.7
				l0,0v-2.5l0,0C196.7,90.7,195.5,89.5,194,89.5z"/>
			<path class="st7" d="M194,121.1L194,121.1L194,121.1h-44.1c-1.5,0-2.7,1.2-2.7,2.7v2.5c0,1.5,1.2,2.7,2.7,2.7H194l0,0
				c1.5,0,2.7-1.2,2.7-2.7h0v-2.5h0C196.7,122.3,195.4,121.1,194,121.1z"/>
			<path class="st7" d="M196.7,108c0-1.5-1.2-2.7-2.7-2.7l0,0l0,0h-30.8c-1.5,0-2.7,1.2-2.7,2.7v2.5c0,1.5,1.2,2.7,2.7,2.7H194l0,0
				l0,0c1.5,0,2.7-1.2,2.7-2.7v0V108L196.7,108z"/>
		</g>
		<g class="st4">
			<path class="st5" d="M-134.8,126.2L-134.8,126.2l-0.1-0.2c-0.1-0.1-0.1-0.2-0.2-0.3L-165,74c-0.5-0.9-1.4-1.5-2.5-1.5
				c-1.2,0-2.2,0.7-2.6,1.7l0,0l-29.6,51.3l0,0c-0.4,0.5-0.7,1.1-0.7,1.8c0,1.6,1.3,2.8,2.8,2.8l0,0h60.1l0,0c1.6,0,2.8-1.3,2.8-2.8
				C-134.6,126.9-134.7,126.5-134.8,126.2z M-167.4,124.8c-2.3,0-4.1-1.8-4.1-4.1c0-2.3,1.8-4.1,4.1-4.1c2.2,0,4.1,1.8,4.1,4.1
				C-163.4,123-165.2,124.8-167.4,124.8z M-163.4,88.8v22.4h0c0,0,0,0,0,0c0,0.9-0.8,1.7-1.7,1.7c0,0,0,0,0,0v0h-4.8
				c-0.9,0-1.7-0.7-1.7-1.7c0,0,0,0,0,0h0V88.9c0,0,0,0,0-0.1c0-0.9,0.7-1.6,1.5-1.6v0h5v0C-164.1,87.2-163.4,87.9-163.4,88.8
				L-163.4,88.8L-163.4,88.8L-163.4,88.8C-163.4,88.8-163.4,88.8-163.4,88.8z"/>
		</g>
		<g class="st4">
			<g>
				<path class="st5" d="M76.5,131.8l4-24.4c0.1-0.4-0.1-0.9-0.4-1.2c0,0,0,0,0,0c-0.3-0.3-0.8-0.5-1.2-0.4l-24.3,4.1
					c-0.5,0.1-0.9,0.5-1.1,0.9c-0.2,0.5,0,1,0.3,1.4l4.8,4.8l-12.8,12.8c-0.5,0.5-0.5,1.4,0,2l8.8,8.8c0.5,0.5,1.4,0.5,2,0
					l12.8-12.8l4.8,4.8c0.4,0.4,0.9,0.5,1.4,0.3C76,132.7,76.4,132.3,76.5,131.8z"/>
			</g>
			<g>
				<path class="st5" d="M93.6,70.9l-4,24.4c-0.1,0.4,0.1,0.9,0.4,1.2c0,0,0,0,0,0c0.3,0.3,0.8,0.5,1.2,0.4l24.3-4.1
					c0.5-0.1,0.9-0.5,1.1-0.9c0.2-0.5,0-1-0.3-1.4l-4.8-4.8l12.8-12.8c0.5-0.5,0.5-1.4,0-2l-8.8-8.8c-0.5-0.5-1.4-0.5-2,0
					l-12.8,12.8L96,70.1c-0.4-0.4-0.9-0.5-1.4-0.3C94.1,69.9,93.7,70.3,93.6,70.9z"/>
			</g>
		</g>
		<g class="st4">
			<g>
				<path class="st5" d="M-119.2,117.1l-3.7,22.4c-0.1,0.4,0.1,0.8,0.4,1.1c0,0,0,0,0,0c0.3,0.3,0.7,0.4,1.1,0.4l22.4-3.8
					c0.5-0.1,0.9-0.4,1-0.9c0.1-0.5,0-1-0.3-1.3l-4.4-4.4l11.7-11.7c0.5-0.5,0.5-1.3,0-1.8l-8.1-8.1c-0.5-0.5-1.3-0.5-1.8,0
					l-11.7,11.7l-4.4-4.4c-0.3-0.3-0.8-0.5-1.3-0.3C-118.8,116.2-119.1,116.6-119.2,117.1z"/>
			</g>
			<g>
				<path class="st5" d="M-47.4,85.6l3.7-22.4c0.1-0.4-0.1-0.8-0.4-1.1c0,0,0,0,0,0c-0.3-0.3-0.7-0.4-1.1-0.4l-22.4,3.8
					c-0.5,0.1-0.9,0.4-1,0.9c-0.1,0.5,0,1,0.3,1.3l4.4,4.4l-11.7,11.7c-0.5,0.5-0.5,1.3,0,1.8l8.1,8.1c0.5,0.5,1.3,0.5,1.8,0
					l11.7-11.7l4.4,4.4c0.3,0.3,0.8,0.5,1.3,0.3C-47.8,86.4-47.5,86.1-47.4,85.6z"/>
			</g>
			<g>
				<path class="st5" d="M-67.5,137.2l22.4,3.7c0.4,0.1,0.8-0.1,1.1-0.4c0,0,0,0,0,0c0.3-0.3,0.4-0.7,0.4-1.1l-3.8-22.4
					c-0.1-0.5-0.4-0.9-0.9-1c-0.5-0.1-1,0-1.3,0.3l-4.4,4.4l-11.7-11.7c-0.5-0.5-1.3-0.5-1.8,0l-8.1,8.1c-0.5,0.5-0.5,1.3,0,1.8
					l11.7,11.7l-4.4,4.4c-0.3,0.3-0.5,0.8-0.3,1.3C-68.4,136.8-68,137.1-67.5,137.2z"/>
			</g>
			<g>
				<path class="st5" d="M-99,65.4l-22.4-3.7c-0.4-0.1-0.8,0.1-1.1,0.4c0,0,0,0,0,0c-0.3,0.3-0.4,0.7-0.4,1.1l3.8,22.4
					c0.1,0.5,0.4,0.9,0.9,1c0.5,0.1,1,0,1.3-0.3l4.4-4.4l11.7,11.7c0.5,0.5,1.3,0.5,1.8,0l8.1-8.1c0.5-0.5,0.5-1.3,0-1.8L-102.7,72
					l4.4-4.4c0.3-0.3,0.5-0.8,0.3-1.3C-98.2,65.8-98.5,65.5-99,65.4z"/>
			</g>
		</g>
		<g class="st8">
			<path class="st7" d="M445.9,93h-48.5c-0.6,0-1,0.4-1,1v34.8c0,0.6,0.4,1,1,1h48.5c0.6,0,1-0.4,1-1V94
				C446.9,93.4,446.5,93,445.9,93z M413.3,122.5c-1.7,0-3.5-0.3-4.9-0.9c-0.2-0.1-0.3-0.3-0.3-0.5l0.5-3.4c0-0.2,0.1-0.3,0.2-0.4
				c0.1-0.1,0.3-0.1,0.4,0c1.6,0.6,2.9,0.8,4.6,0.8c1.7,0,3-0.8,3-2c0-1.5-0.7-2.2-4.6-2.5c-0.3,0-0.5-0.2-0.5-0.5v-3.4
				c0-0.3,0.2-0.5,0.5-0.5c3.3-0.2,3.7-1.3,3.7-2c0-0.5,0-1.4-2.3-1.4c-1.2,0-2.5,0.3-3.8,1c-0.1,0.1-0.3,0.1-0.5,0
				c-0.1-0.1-0.2-0.2-0.3-0.4l-0.5-3.4c0-0.2,0.1-0.4,0.3-0.5c1.5-0.7,3.5-1.1,5.8-1.1c4.1,0,6.8,1.9,6.8,4.7c0,2.1-1.1,3.7-3.3,4.7
				c1.9,0.7,3.9,2.1,3.9,4.9C422,119.8,418.6,122.5,413.3,122.5z M434.5,121.7c0,0.3-0.2,0.5-0.5,0.5h-4.1c-0.3,0-0.5-0.2-0.5-0.5
				V108l-2.7,1c-0.1,0.1-0.3,0-0.4,0c-0.1-0.1-0.2-0.2-0.2-0.4l-0.5-3.4c0-0.2,0.1-0.4,0.3-0.5l5.9-2.9c0.1,0,0.1-0.1,0.2-0.1h2.1
				c0.3,0,0.5,0.2,0.5,0.5L434.5,121.7L434.5,121.7z"/>
			<g>
				<path class="st7" d="M445.9,77.3h-5.2v2.4c0,2.6-1.5,5.3-5.6,5.3s-5.6-2.7-5.6-5.3v-2.4h-15.8v2.4c0,2.6-1.5,5.3-5.6,5.3
					c-4.1,0-5.6-2.7-5.6-5.3v-2.4h-5.2c-0.6,0-1,0.4-1,1v10.2c0,0.6,0.4,1,1,1h48.5c0.6,0,1-0.4,1-1V78.3
					C446.9,77.8,446.5,77.3,445.9,77.3z"/>
				<path class="st7" d="M408.3,81.8c1.7,0,2.3-0.6,2.3-2.1v-2.4v-2.4c0-1.5-0.7-2.1-2.3-2.1c-1.7,0-2.3,0.6-2.3,2.1v2.4v2.4
					C405.9,81.2,406.6,81.8,408.3,81.8z"/>
				<path class="st7" d="M435.2,81.8c1.7,0,2.3-0.6,2.3-2.1v-2.4v-2.4c0-1.5-0.7-2.1-2.3-2.1c-1.7,0-2.3,0.6-2.3,2.1v2.4v2.4
					C432.9,81.2,433.5,81.8,435.2,81.8z"/>
			</g>
		</g>
		<g class="st8">
			<g>
				<path class="st5" d="M366.7,81l-6.8-6.8c-0.2-0.2-0.6-0.4-0.9-0.4c-0.3,0-0.7,0.1-0.9,0.4l-24.7,24.7l-4.8-4.8
					c-0.5-0.5-1.3-0.5-1.8,0l-6.8,6.8c-0.2,0.2-0.4,0.6-0.4,0.9c0,0.3,0.1,0.7,0.4,0.9l12.5,12.5c0.2,0.2,0.6,0.4,0.9,0.4
					c0,0,0,0,0,0c0,0,0,0,0,0c0.3,0,0.7-0.1,0.9-0.4l32.4-32.4C367.2,82.3,367.2,81.5,366.7,81z"/>
				<g>
					<path class="st5" d="M350.8,104.2V121h-34.9V86.1h24.6l7.9-7.9h-36.3v0c0,0,0,0-0.1,0c-2.2,0-4,1.8-4.1,4h0v42.8h0
						c0.1,2.2,1.8,3.9,4,4v0h0.1h0l0,0h42.6h0l0,0h0.1v0c2.2-0.1,3.9-1.8,4-4h0V96.3L350.8,104.2z"/>
				</g>
			</g>
		</g>
		<g>
			<polygon class="st5" points="646,79.5 646,85.7 647.8,85.7 647.8,77.2 646.2,77.2 643.6,79.9 644.6,81 			"/>
			<path class="st5" d="M644.7,98.5c0.7,0,1.4,0.4,1.4,1.1c0,1-1,1.9-4.5,4.5v1.4h6.4v-1.6h-3.5c2.2-1.6,3.4-2.9,3.4-4.3
				c0-1.7-1.4-2.7-3.2-2.7c-1.2,0-2.4,0.4-3.3,1.4l1,1.2C643,98.9,643.8,98.5,644.7,98.5z"/>
			<path class="st5" d="M646.1,120.9c0.9-0.2,1.9-0.9,1.9-1.9c0-1.4-1.2-2.3-3.2-2.3c-1.5,0-2.6,0.6-3.2,1.3l0.9,1.1
				c0.6-0.6,1.3-0.9,2.2-0.9c0.9,0,1.6,0.3,1.6,1c0,0.6-0.6,0.9-1.6,0.9c-0.3,0-0.9,0-1.1,0v1.6c0.1,0,0.7,0,1.1,0
				c1.2,0,1.7,0.3,1.7,1c0,0.6-0.6,1.1-1.6,1.1c-0.8,0-1.8-0.4-2.3-1l-1,1.2c0.6,0.8,1.8,1.4,3.3,1.4c2,0,3.3-1,3.3-2.5
				C648.1,121.7,647,121,646.1,120.9z"/>
			<path class="st5" d="M704.3,77.5h-49.5c-1.5,0-2.7,1.2-2.7,2.7v2.5c0,1.5,1.2,2.7,2.7,2.7h49.5c1.5,0,2.7-1.2,2.7-2.7v-2.5
				C707,78.7,705.7,77.5,704.3,77.5z"/>
			<path class="st5" d="M704.3,97.2h-49.5c-1.5,0-2.7,1.2-2.7,2.7v2.5c0,1.5,1.2,2.7,2.7,2.7h49.5c1.5,0,2.7-1.2,2.7-2.7v-2.5
				C707,98.4,705.7,97.2,704.3,97.2z"/>
			<path class="st5" d="M704.3,116.9h-49.5c-1.5,0-2.7,1.2-2.7,2.7v2.5c0,1.5,1.2,2.7,2.7,2.7h49.5c1.5,0,2.7-1.2,2.7-2.7v-2.5
				C707,118.1,705.7,116.9,704.3,116.9z"/>
		</g>
		<g>
			<path class="st5" d="M604.3,97.6c0,7.9-6.4,14.2-14.2,14.2c-7.9,0-14.2-6.4-14.2-14.2c0-2.2,0.5-4.3,1.4-6.2h-15.7v33.3
				c0,3.1,2.5,5.5,5.5,5.5h46c3.1,0,5.5-2.5,5.5-5.5V91.4h-15.7C603.7,93.3,604.3,95.4,604.3,97.6z"/>
			<path class="st5" d="M613,72.4h-46c-3.1,0-5.5,2.5-5.5,5.5V89h17.2c2.6-3.4,6.7-5.7,11.4-5.7c4.6,0,8.8,2.2,11.4,5.7h17.2V77.9
				C618.6,74.9,616.1,72.4,613,72.4z M566.1,86.4H564v-8c0-1.4,0.9-2.6,2.1-3.1L566.1,86.4L566.1,86.4z M569.4,86.4h-2V75.1h2V86.4z
				 M572.8,86.4h-2V75.1h2V86.4z M576.2,78.4v4.6v3.4h-2V75.1h2V78.4z M615.7,83.1c0,1.9-1.5,3.4-3.4,3.4h-5.5
				c-1.9,0-3.4-1.5-3.4-3.4v-4.6c0-1.9,1.5-3.4,3.4-3.4h5.5c1.9,0,3.4,1.5,3.4,3.4V83.1z"/>
			<path class="st5" d="M590,110.2c6.9,0,12.5-5.6,12.5-12.5c0-6.9-5.6-12.5-12.5-12.5c-6.9,0-12.5,5.6-12.5,12.5
				C577.5,104.5,583.1,110.2,590,110.2z M590,87.6c5.5,0,10,4.5,10,10c0,5.5-4.5,10-10,10s-10-4.5-10-10
				C580,92.1,584.5,87.6,590,87.6z"/>
		</g>
		<g>
			<path class="st5" d="M530.2,72.8h-48.6c-2.3,0-4.2,1.8-4.2,4.1v48.8c0,2.3,1.9,4.1,4.2,4.1h48.6c2.3,0,4.2-1.8,4.2-4.1V76.9
				C534.4,74.6,532.5,72.8,530.2,72.8z M494.3,121.4h-8.5V94.2h8.5V121.4z M490,90.5c-2.7,0-4.9-2.2-4.9-4.9c0-2.7,2.2-4.9,4.9-4.9
				c2.7,0,4.9,2.2,4.9,4.9C494.9,88.3,492.7,90.5,490,90.5z M526,121.4h-8.5v-13.2c0-3.2-0.1-7.2-4.4-7.2c-4.4,0-5.1,3.4-5.1,7v13.5
				h-8.5V94.2h8.1v3.7h0.1c1.1-2.1,3.9-4.4,8-4.4c8.6,0,10.1,5.6,10.1,13L526,121.4L526,121.4z"/>
		</g>
		<g class="st8">
			<path class="st5" d="M400.6,9.3l20.7,28.9c0.4,0.5,1,0.8,1.6,0.8c0,0,0,0,0,0c0.6,0,1.2-0.3,1.6-0.8l20.5-28.9
				c0.4-0.6,0.5-1.4,0.1-2.1c-0.3-0.7-1-1.1-1.8-1.1h-9.7l0-25.9c0-1.1-0.9-2-2-2l-17.9,0c-1.1,0-2,0.9-2,2V6.2h-9.7
				c-0.7,0-1.4,0.4-1.8,1.1C400.2,7.9,400.2,8.7,400.6,9.3z"/>
		</g>
		<g class="st6">
			<path class="st7" d="M364.8,16.6C364.8,16.6,364.8,16.6,364.8,16.6L364.8,16.6l-13.7-8l13.8-8l0,0c0.7-0.5,1-1.4,0.5-2.2
				c0,0,0,0,0,0l0,0L361-9.1l0,0c-0.4-0.7-1.4-1-2.1-0.6l0,0l-13.8,8v-16h0c0-0.9-0.7-1.5-1.6-1.5c0,0,0,0-0.1,0v0h-8.8v0
				c-0.8,0-1.5,0.7-1.6,1.5h0v15.9l-13.8-8l0,0c-0.8-0.4-1.7-0.1-2.1,0.6c0,0,0,0,0,0.1l0,0l-4.4,7.6l0,0c-0.4,0.7-0.2,1.7,0.6,2.1
				l0,0l0,0c0,0,0,0,0,0c0,0,0,0,0,0l13.8,8l-13.5,7.8c-0.1,0-0.2,0.1-0.3,0.1c-0.8,0.4-1,1.4-0.6,2.2l0,0l4.5,7.8l0,0
				c0.5,0.6,1.3,0.8,2,0.4c0,0,0,0,0,0l0,0l13.8-7.9v15.5c0,0.1,0,0.2,0,0.4c0,0.9,0.7,1.6,1.6,1.6v0h9.1v0c0.8-0.1,1.3-0.8,1.3-1.6
				c0,0,0,0,0,0h0.1V19l13.5,7.8c0.1,0.1,0.2,0.2,0.3,0.2c0.8,0.4,1.7,0.2,2.2-0.6l0,0l4.4-7.6c0,0,0,0,0,0s0,0,0,0l0.1-0.2l0,0
				C365.8,17.8,365.5,17,364.8,16.6z"/>
		</g>
		<g class="st6">
			<path class="st7" d="M235.8-10.4c0.3-0.2,0.6-0.3,0.8-0.5c2.7-2.3,5.6-4.2,9-5.2c1.8-0.5,3.6-0.7,5.5-0.9c0.3,0,0.9,0.3,1,0.6
				c0.1,0.3,0.1,0.9-0.2,1.2c-0.4,0.5-1,0.9-1.6,1.1c-2.3,0.8-4.6,1.4-6.8,2.1c-0.5,0.2-0.9,0.8-1.4,1.1c-1.1,0.9-2.2,1.7-3.3,2.6
				c-0.2,0.1-0.3,0.3-0.5,0.4c0,0.1,0.1,0.1,0.1,0.2c0.6-0.2,1.1-0.5,1.7-0.7c1.8-0.6,3.6-1.4,5.4-1.7c1.6-0.2,3.3,0.1,5,0.3
				c0.4,0,0.8,0.3,1.1,0.6c1.2,0.9,2.4,1.9,3.6,2.9c0.4,0.3,0.4,0.7,0.1,1.1c-0.7,1-1.7,1.3-2.7,0.7c-0.9-0.5-1.6-1.2-2.4-1.8
				c-0.4-0.3-0.8-0.5-1.4-0.4c-1.1,0.2-2.2,0.1-3.3,0.2c-0.4,0-0.9,0.1-1.2,0.4c-1.5,1.1-3,2.2-4.5,3.4c-0.3,0.2-0.4,0.6-0.5,1.1
				c0.1-0.1,0.3-0.1,0.4-0.2c1.2-0.8,2.6-0.9,4-1.1c0.4-0.1,0.9-0.1,1.3-0.1c1.8-0.3,3.2,0.6,4.5,1.6c1.1,0.8,2.2,1.7,3.3,2.5
				c0.6,0.5,1,1.2,1,2c0,1.4,0.1,2.8-0.4,4.2c-0.1,0.2-0.1,0.5,0,0.5c0.9,0.7,0.3,1.4,0.1,2c-0.5,1.4-1,2.7-1.6,4.1
				c-0.5,1.3-1.3,2.2-2.8,2.6c-3.2,0.9-6.4,2-9.6,3.1c-1.3,0.4-2.6,0.6-4,0.3c-2.6-0.6-5.2-0.4-7.7,0.7c-1.2,0.5-2.3,1.1-3.4,1.7
				c-1.3-1.9-2.1-4.1-2.6-6.3c-0.6-2.6-0.6-5.3-0.3-8c0-0.2,0.2-0.6,0.4-0.6c2.6-1.1,3.8-3.3,4.7-5.8c1-3,1.5-6.2,3.3-8.8
				c2-2.9,3.6-6.1,6.2-8.6c1.3-1.2,2.4-2.7,3.5-4.1c0.5-0.6,0.8-0.6,1.3,0.1c0.5,0.8,0.4,1.7-0.3,2.5c-1.6,2-3.1,4-4.7,6
				c-0.2,0.2-0.3,0.5-0.4,0.7C235.7-10.5,235.7-10.4,235.8-10.4z M247.1,12.1c0.6,0,1.2,0.2,1.5-0.5c0.6-1.3,1.6-2.4,2.7-3.4
				c0.3-0.3,0.3-0.5,0.1-0.9c-0.6-1.1-1-2.2-1.6-3.3c-0.2-0.3-0.4-0.6-0.7-0.8c-1-0.6-2-1.2-3-1.8c-0.3-0.1-0.7-0.2-1-0.1
				c-0.8,0.3-1.5,0.7-2.3,1c-0.7,0.3-1.4,0.5-2.1,0.8c-1.6,0.7-2,2.2-2.5,3.6c-0.3,1-0.1,1.7,0.6,2.4c0.9,1,1.8,2,2.6,3.1
				c0.3,0.4,0.6,0.4,1,0.3C244.1,12.1,245.7,11.8,247.1,12.1z"/>
			<path class="st7" d="M274.7,27.6c-0.5,0.4-1.1,0.7-1.6,1.2c-2.4,2.1-5.1,3.6-8.1,4.6c-1.7,0.6-3.6,0.7-5.5,0.9
				c-1,0.1-1.6-1-1-1.8c0.4-0.5,1.1-0.9,1.7-1.2c1.9-0.7,3.9-1.1,5.8-1.8c0.7-0.2,1.3-0.7,1.9-1.2c1.2-0.9,2.4-1.9,3.7-2.9
				c0.2-0.1,0.3-0.3,0.4-0.6c-0.7,0.3-1.3,0.6-2,0.8c-1.7,0.6-3.3,1.4-5.1,1.6c-1.6,0.2-3.4-0.1-5-0.3c-0.4,0-0.8-0.4-1.1-0.6
				c-1.1-0.8-2.1-1.6-3.1-2.4c-1.1-0.8-0.9-1.9,0.4-2.4c0.5-0.2,1.3-0.1,1.7,0.1c0.9,0.5,1.8,1.3,2.7,1.9c0.3,0.2,0.6,0.3,0.9,0.3
				c1.2,0,2.3-0.1,3.5-0.3c0.5-0.1,1.1-0.2,1.5-0.5c1.5-1,2.9-2.1,4.3-3.2c0.3-0.2,0.4-0.7,0.5-1.1c-1.9,1.2-4,1.2-6.1,1.4
				c-1.4,0.1-2.5-0.2-3.6-1.1c-1.4-1.1-2.9-2.2-4.2-3.3c-0.3-0.3-0.6-0.8-0.6-1.2c0-1.4,0.2-2.8,0.3-4.2c0-0.5,0.3-0.9-0.2-1.3
				c-0.1-0.1-0.1-0.5-0.1-0.7c0.2-0.6,0.4-1.1,0.6-1.6c0.4-1,0.8-2.1,1.2-3.1c0.5-1.4,1.4-2.4,2.9-2.8c3.2-0.9,6.4-2,9.5-3.1
				c1.3-0.4,2.6-0.6,4-0.2c2.8,0.7,5.5,0.2,8-1c1-0.5,1.9-1,3-1.5c1.2,1.4,1.8,3.1,2.3,4.8c1,3.1,1,6.3,0.7,9.4
				c-0.1,0.7-0.7,0.8-1.1,1c-1.6,0.7-2.6,1.9-3.2,3.4c-0.7,1.6-1.3,3.3-1.8,4.9c-0.7,2.3-1.5,4.6-2.9,6.7c-1,1.6-2,3.2-3.1,4.7
				c-0.9,1.2-2,2.3-3,3.5c-1.1,1.2-2.1,2.5-3.2,3.7c-0.6,0.7-0.8,0.6-1.3-0.1c-0.5-0.8-0.4-1.6,0.3-2.5c1.6-2,3.1-4,4.6-6
				c0.2-0.2,0.2-0.5,0.3-0.7C274.9,27.8,274.8,27.7,274.7,27.6z M259.1,9.5c0.5,1.2,1,2.5,1.6,3.8c0.1,0.3,0.4,0.5,0.7,0.7
				c1,0.6,2,1.2,3,1.8c0.4,0.2,0.6,0.3,1,0.1c1.2-0.5,2.4-1,3.6-1.4c1.2-0.4,2.2-1,2.7-2.3c0.2-0.6,0.5-1.3,0.6-2
				c0.2-0.7,0.1-1.4-0.5-2c-1-1.1-1.9-2.2-2.9-3.3c-0.1-0.1-0.5-0.2-0.6-0.2c-1.7,0.5-3.4,0.8-5.2,0.5c-0.3-0.1-0.8,0.2-1,0.5
				C260.9,7,260,8.3,259.1,9.5z"/>
		</g>
		<g class="st9">
			<polygon class="st5" points="161.9,30.1 159.2,37.2 185.1,37.2 182.4,30.1 			"/>
			<polygon class="st5" points="164.1,23.2 180.2,23.2 172.1,1.8 			"/>
			<path class="st5" d="M194.5-19.9h-46c-3.1,0-5.5,2.5-5.5,5.5v46c0,3.1,2.5,5.5,5.5,5.5h1.7l16.5-41.8l0,0c0.3-0.8,1-1.5,2-1.5h7
				c0.9,0,1.7,0.6,2,1.4h0l16.5,41.9h0.4c3.1,0,5.5-2.5,5.5-5.5v-46C200.1-17.4,197.6-19.9,194.5-19.9z"/>
		</g>
		<g class="st4">
			<path class="st5" d="M123.9,1.9h-6.2v-13.6l0,0v0c0-0.8-0.6-1.4-1.4-1.4H51.6c-0.8,0-1.4,0.6-1.4,1.4v0l0,0V29l0,0v0
				c0,0.8,0.6,1.4,1.4,1.4h64.7c0.8,0,1.4-0.6,1.4-1.4v0l0,0V14.2h6.2c0.8,0,1.4-0.6,1.4-1.4V3.2C125.2,2.5,124.6,1.9,123.9,1.9z
				 M109.8,22.5H58.3V-5h51.5V22.5z"/>
			<polygon class="st5" points="93,-1.2 62.2,-1.2 62.2,18.4 85.3,18.4 			"/>
		</g>
		<g class="st4">
			<circle class="st5" cx="-2.8" cy="-15.3" r="5.7"/>
			<path class="st5" d="M30.2,36L30.2,36L13.7,7.3c0.3-0.4,0.5-0.9,0.5-1.4c0-1-0.6-1.9-1.5-2.2L7.9,0.9L0.6-6.3
				c-1-1.3-2.6-2.1-4.4-2.1c-1.6,0-3.1,0.7-4.1,1.7l-8.4,8.4l0,0c-0.1,0.1-0.2,0.3-0.2,0.4c0,0,0,0.1,0,0.1h0v9.5c0,0,0,0,0,0
				c0,1.3,1.1,2.4,2.4,2.4s2.4-1.1,2.4-2.4c0,0,0,0,0,0V3.9L-8.9,1v14.9h0l-5.5,9.5l-7,7l0,0c-0.6,0.6-1.1,1.5-1.1,2.4
				c0,1.8,1.5,3.3,3.3,3.3c1,0,2-0.5,2.6-1.2l7.6-7.6l0,0l6.4-11.1L3,23.9l7.3,12.7l0,0c0.6,1,1.6,1.7,2.9,1.7
				c1.8,0,3.3-1.5,3.3-3.3c0-0.7-0.2-1.4-0.6-1.9L8.3,19.8l0,0l-6.9-6.9V1.2l3.5,3.5l0,0l0,0l0,0l0,0l5.4,3.1c0,0,0.1,0.1,0.1,0.1
				l0,0v0c0.4,0.2,0.8,0.3,1.2,0.3c0.1,0,0.3,0,0.4,0l16.5,28.6c0,0,0,0,0,0.1l0,0h0c0.1,0.3,0.4,0.5,0.8,0.5c0.5,0,0.9-0.4,0.9-0.9
				C30.4,36.3,30.3,36.2,30.2,36z"/>
		</g>
		<g class="st4">
			<path class="st5" d="M-62.6,19.8L-73.6,8.7l11.1-11.1c0.1-0.1,0.2-0.2,0.4-0.4l0,0l0,0c0.5-0.6,0.8-1.3,0.8-2.2
				c0-1-0.5-2-1.2-2.6l-15.6-15.6c-0.6-0.8-1.6-1.3-2.6-1.3c-1.9,0-3.4,1.5-3.4,3.4c0,0.3,0.1,0.6,0.1,0.9v18.4l-8.5-8.5
				c-0.6-0.7-1.5-1.1-2.5-1.1c-1.9,0-3.4,1.5-3.4,3.4c0,1,0.4,1.9,1.1,2.5L-84,7.9v1.7l-13.3,13.3c0,0,0,0,0,0l0,0l0,0
				c-0.6,0.6-1,1.4-1,2.3c0,1.9,1.5,3.4,3.4,3.4c1,0,1.9-0.5,2.5-1.2L-84,19v19.1c0,0,0,0.1,0,0.1c0,0,0,0.1,0,0.1v0h0
				c0.1,1.8,1.5,3.2,3.4,3.2c1,0,1.9-0.4,2.5-1.1l0,0l15.7-15.7c0,0,0,0,0.1-0.1l0.2-0.2l0,0c0.5-0.6,0.8-1.3,0.8-2.2
				C-61.3,21.3-61.8,20.4-62.6,19.8z M-69.5,22.4l-7.8,7.8V14.6L-69.5,22.4z M-77.2,2.8v-15.6l7.8,7.8L-77.2,2.8z"/>
		</g>
		<g class="st4">
			<path class="st5" d="M-138.2-13.3L-138.2-13.3c0-0.7-0.6-1.2-1.3-1.3v0h-2.7l0,47.9l0,0c0,0.7-0.6,1.3-1.3,1.3v0l-40.4,0
				c-0.6,0-1.2-0.5-1.3-1.1v-2.9h37.6v0c0,0,0,0,0,0c0.7,0,1.3-0.6,1.3-1.3c0,0,0,0,0,0l0-49.3c0-0.7-0.6-1.3-1.3-1.3c0,0,0,0,0,0v0
				h-4.6v10.3V2v4.5c0,0.3-0.3,0.6-0.6,0.6c-0.2,0-0.3-0.1-0.5-0.2l-4.5-4.5h0c-0.1-0.1-0.2-0.2-0.4-0.2s-0.3,0.1-0.4,0.2h0
				l-4.5,4.5h0c-0.1,0.1-0.3,0.2-0.4,0.2c-0.3,0-0.6-0.3-0.6-0.6V2v-12.9v-10.3h-23.7c-0.7,0-1.3,0.6-1.3,1.3c0,0,0,0,0,0v47v10.2
				c0,0,0,0,0,0c0,0,0,0,0,0v0.1h0c0.1,0.7,0.6,1.2,1.3,1.2v0l48.2,0h0v0c0.7,0,1.3-0.6,1.3-1.3l0,0L-138.2-13.3z"/>
		</g>
		<g>
			<path class="st5" d="M679.6-22.8c-14,0-25.4,11.4-25.4,25.4c0,4.8,1.3,9.3,3.6,13.1L645.5,28l0,0c-1.3,1.3-2.1,3-2.1,5.1
				c0,3.9,3.1,6.9,7,6.9c2,0,3.8-0.8,5-2.1l0,0l12.7-12.7c3.4,1.7,7.3,2.7,11.4,2.7c14,0,25.4-11.4,25.4-25.4
				C704.9-11.4,693.6-22.8,679.6-22.8z M679.7,18c-8.8,0-15.9-7.1-15.9-15.9c0-8.8,7.1-15.9,15.9-15.9s15.9,7.1,15.9,15.9
				C695.6,10.9,688.5,18,679.7,18z"/>
		</g>
		<g>
			<path class="st5" d="M618.9-15h-57c-1.1,0-2,0.9-2,2v4.1c0,0.2,0.2,0.4,0.4,0.5l30,17.1c0.1,0,0.2,0.1,0.3,0.1
				c0.1,0,0.2,0,0.3-0.1l29-17.1c0.2-0.1,0.6-0.3,0.8-0.4c0.2-0.1,0.4-0.3,0.4-0.5V-13C620.9-14.1,620-15,618.9-15z"/>
			<path class="st5" d="M620.7-2.7c-0.2-0.1-0.4-0.1-0.5,0l-16.4,9.7c-0.1,0.1-0.2,0.2-0.2,0.4c0,0.2,0,0.3,0.1,0.4l16.4,17.7
				c0.1,0.1,0.2,0.2,0.4,0.2c0.1,0,0.1,0,0.2,0c0.2-0.1,0.3-0.3,0.3-0.5V-2.3C620.9-2.5,620.8-2.7,620.7-2.7z"/>
			<path class="st5" d="M599,10.2c-0.2-0.2-0.4-0.2-0.6-0.1l-6.6,3.9c-0.8,0.5-1.8,0.5-2.5,0l-5.8-3.3c-0.2-0.1-0.4-0.1-0.6,0.1
				l-22,20.4c-0.1,0.1-0.2,0.3-0.2,0.4c0,0.2,0.1,0.3,0.2,0.4c0.3,0.2,0.7,0.3,1,0.3h56.4c0.2,0,0.4-0.1,0.5-0.3
				c0.1-0.2,0-0.4-0.1-0.5L599,10.2z"/>
			<path class="st5" d="M578,8.3c0.1-0.1,0.2-0.3,0.2-0.4c0-0.2-0.1-0.3-0.3-0.4l-17.3-9.9c-0.2-0.1-0.3-0.1-0.5,0
				c-0.2,0.1-0.3,0.3-0.3,0.4V24c0,0.2,0.1,0.4,0.3,0.5c0.1,0,0.1,0,0.2,0c0.1,0,0.2,0,0.3-0.1L578,8.3z"/>
		</g>
		<g class="st8">
			<g>
				<path class="st7" d="M529.6-19.9h-46c-3.1,0-5.5,2.5-5.5,5.5v46c0,3.1,2.5,5.5,5.5,5.5h46c3.1,0,5.5-2.5,5.5-5.5v-46
					C535.2-17.4,532.7-19.9,529.6-19.9z M522.8,14.4v4.2c-0.1,0.8-0.7,1.5-1.6,1.6l-23.9,0c-1.8,0-3.3-0.6-4.5-1.7
					c-1.2-1.1-1.9-2.5-1.9-4.1c0-1.3,0.4-2.4,1.3-3.4c0.8-1,1.9-1.7,3.2-2.1l20.9-6h-25.3v-4c0-0.8,0.6-1.5,1.4-1.7h24
					c1.8,0,3.3,0.6,4.5,1.7c1.2,1.1,1.9,2.5,1.9,4.1c0,1.3-0.4,2.5-1.3,3.5c-0.8,1-1.9,1.7-3.3,2.1l-20.9,6H522.8z"/>
			</g>
		</g>
		<g class="st8">
			<path class="st5" d="M109.2,194c0-16.4-13.3-29.7-29.7-29.7S49.7,177.6,49.7,194c0,16.4,13.3,29.7,29.7,29.7
				c5.3,0,10.2-1.4,14.5-3.8c0.5-0.2,0.8-0.6,0.8-1.2c0-0.5-0.3-0.9-0.7-1.1l0,0l-5.2-3.2l0,0c-0.2-0.2-0.5-0.3-0.8-0.3
				c-0.2,0-0.4,0-0.5,0.1l0,0c-2.5,1-5.3,1.6-8.2,1.6c-12,0-21.8-9.8-21.8-21.8c0-12,9.8-21.8,21.8-21.8c11.4,0,20.7,8.7,21.7,19.8
				c0,7.9-3.5,12.4-6.2,12.4c-1.5,0-2.6-1-2.6-3.1c0-0.4,0.1-1.3,0.2-1.7l3.3-15.8h0c0-0.1,0-0.1,0-0.2c0-0.6-0.5-1.1-1.1-1.1h-5.7
				c-0.5,0-0.9,0.4-1,0.9l0,0l-0.6,2.8c-1.5-2.6-4.5-4.7-8.7-4.7c-8.1,0-15.8,7.7-15.8,17.1c0,6.8,4,11.7,10.8,11.7
				c3.8,0,7.6-2.2,10-5.6l0.1,0.4c0.5,2.6,7.8,6,12,6c6.1,0,13.2-4.1,13.2-15.8l0,0C109.2,194.9,109.2,194.5,109.2,194z M84.7,199.4
				c-1.5,2.2-4,4.6-7.7,4.6c-3.6,0-5.7-2.5-5.7-6.1c0-5.1,4-10.1,9.6-10.1c3.1,0,5,2,5.6,3.6L84.7,199.4z"/>
		</g>
		<g class="st10">
			<path class="st5" d="M9.1,192c2.9-1.5,4.7-4.1,4.3-8.4c-0.6-5.9-5.7-7.9-12.2-8.5l0-7.2c0,0,0,0,0-0.1c0-0.5-0.4-1-1-1l0,0l0,0
				h-3l0,0l0,0h0l0,0c-0.5,0-1,0.4-1,1l0,0h0l0,7c-1.3,0-2.7,0-4,0.1l0-7c0,0,0-0.1,0-0.1c0-0.5-0.4-1-1-1l0,0l0,0h-3l0,0l0,0h0l0,0
				c-0.5,0-1,0.4-1,1c0,0,0,0,0,0l0,0l0,7.2c-1.1,0-2.2,0-3.2,0l0,0H-23v0c-0.5,0-1,0.4-1,1v3.4c0,0.5,0.4,1,1,1c0,0,0,0,0,0v0
				c0,0,3.7-0.1,3.6,0c2,0,2.7,1.2,2.9,2.2l0,9.4l0,0l0,13.1c-0.1,0.6-0.5,1.7-1.9,1.7c0.1,0.1-3.6,0-3.6,0l0,0c0,0,0,0,0,0
				c-0.5,0-0.9,0.3-1,0.8l0,0l-0.9,4.1l0,0c0,0,0,0.1,0,0.1c0,0.5,0.4,0.9,0.9,1l0,0l6.5,0c1.2,0,2.4,0,3.6,0l0,7.3h0
				c0,0.5,0.4,1,1,1l0,0l0,0h3l0,0l0,0h0c0.5,0,1-0.4,1-1l0,0h0l0-7.3c1.4,0,2.7,0,4,0l0,7.2h0c0,0.5,0.4,1,1,1l0,0l0,0h3l0,0l0,0h0
				c0.5,0,1-0.4,1-1v0h0l0-7.3c8.4-0.5,14.3-2.6,15.1-10.5C16.9,196,13.9,193.1,9.1,192z M-7.7,180.8c2.8,0,11.7-0.9,11.7,5
				c0,5.7-8.9,5-11.7,5L-7.7,180.8z M-7.7,206.9l0-11c3.4,0,14.1-1,14.1,5.5C6.4,207.6-4.3,206.9-7.7,206.9z"/>
		</g>
		<g class="st4">
			<path class="st5" d="M-56.5,194c0-0.7-0.3-1.3-0.9-1.7l0,0l-7.4-4.3l4.3-7.4l0,0c0.3-0.6,0.2-1.3-0.1-1.9c-0.4-0.6-1-1-1.6-1v0
				h-8.5v-8.5h0c-0.1-0.6-0.4-1.3-1-1.6c-0.6-0.4-1.3-0.4-1.9-0.1l0,0l-7.5,4.3l-4.2-7.2l0,0c-0.4-0.5-1-0.9-1.7-0.9
				c-0.7,0-1.3,0.3-1.7,0.9l0,0l-4.2,7.3l-7.3-4.2l0,0c-0.6-0.3-1.3-0.2-1.9,0.1c-0.6,0.4-1,1-1,1.6h0v8.5h-8.4v0
				c-0.6,0.1-1.3,0.4-1.6,1c-0.4,0.6-0.4,1.3-0.1,1.9l0,0l4.2,7.2l-7.4,4.3l0,0c-0.5,0.4-0.9,1-0.9,1.7c0,0.7,0.3,1.3,0.9,1.7l0,0
				l7.4,4.3l-4.3,7.4l0,0c-0.3,0.6-0.2,1.3,0.1,1.9c0.4,0.6,1,1,1.6,1v0h8.5v8.5h0c0.1,0.6,0.4,1.3,1,1.6c0.6,0.4,1.3,0.4,1.9,0.1
				l0,0l7.5-4.3l4.2,7.2l0,0c0.4,0.5,1,0.9,1.7,0.9c0.7,0,1.3-0.3,1.7-0.9l0,0l4.2-7.3l7.3,4.2l0,0c0.6,0.3,1.3,0.2,1.9-0.1
				c0.6-0.4,1-1,1-1.6h0v-8.5h8.4v0c0.6-0.1,1.3-0.4,1.6-1c0.4-0.6,0.4-1.3,0.1-1.9l0,0l-4.2-7.2l7.4-4.3l0,0
				C-56.8,195.3-56.5,194.7-56.5,194z M-92,203l-7.8-3.4l3.4,6l-1.9,1.1l-5.3-9.1l2-1.2l7.6,3.3l-3.3-5.7l1.9-1.1l5.3,9.1L-92,203z
				 M-88.3,200.9l-5.3-9.1l6.5-3.7l1,1.7l-4.5,2.6l1.1,1.9l4.4-2.6l1,1.7l-4.4,2.6l1.2,2.1l4.5-2.6l1,1.7L-88.3,200.9z M-73.4,192.2
				l-5.2-5.4l2,7.2l-2.1,1.2l-7.9-7.6l2.2-1.3l5.4,5.7l-2.1-7.6l1.5-0.9l5.5,5.6l-2.2-7.5l2.2-1.3l2.7,10.7L-73.4,192.2z"/>
		</g>
		<g class="st4">
			<circle class="st5" cx="-170.3" cy="196.6" r="7.5"/>
			<path class="st5" d="M-141.1,173.6L-141.1,173.6l-13.2,0v-2.2c0-1.6-1.3-3-3-3h-26c-1.6,0-3,1.3-3,3v2.2h-13.2v0
				c-1.6,0-2.9,1.3-2.9,3v40.2c0,1.6,1.3,3,2.9,3v0h58.3v0c1.6,0,3-1.3,3-3v-40.2C-138.2,174.9-139.5,173.6-141.1,173.6z
				 M-170.1,211.9c-8.4,0-15.3-6.8-15.3-15.3c0-8.4,6.8-15.3,15.3-15.3c8.4,0,15.3,6.8,15.3,15.3
				C-154.8,205-161.6,211.9-170.1,211.9z M-142.1,185.4h-11.7v-7.9h11.7L-142.1,185.4L-142.1,185.4z"/>
		</g>
		<g>
			<path class="st5" d="M439.4,217.8L439.4,217.8c0-1.3-1.1-2.4-2.4-2.4h-49.1l0,0c-1.3,0-2.4,1.1-2.4,2.4l0,0v3.1l0,0l0,0
				c0,1.3,1.1,2.4,2.4,2.4l0,0H437c1.3,0,2.4-1.1,2.4-2.4l0,0l0,0V217.8z"/>
			<path class="st5" d="M392.3,184.8L392.3,184.8L392.3,184.8c-0.5-0.4-1.1-0.6-1.7-0.6c-1.4,0-2.6,1.1-2.6,2.5h-0.1v23.2h0.1
				c0.1,1.3,1.2,2.4,2.6,2.4c0,0,0,0,0,0v0h43.6v-0.1c0,0,0,0,0,0c1.3,0,2.4-1,2.6-2.3h0v-0.3v0c0,0,0,0,0,0v-22.4
				c0-0.2,0.1-0.4,0.1-0.5c0-1.4-1.2-2.6-2.6-2.6c-0.6,0-1.2,0.2-1.6,0.6l0,0l-0.1,0.1c-0.1,0.1-0.2,0.2-0.2,0.2l-5.5,5.5
				l-12.6-12.6l0,0c-0.5-0.5-1.1-0.8-1.9-0.8c-0.7,0-1.4,0.3-1.9,0.8l0,0l-12.6,12.6l-5.4-5.4C392.5,185,392.4,184.9,392.3,184.8z
				 M430.6,191.5L430.6,191.5L430.6,191.5L430.6,191.5z"/>
			<circle class="st5" cx="390.5" cy="175.9" r="4.8"/>
			<circle class="st5" cx="434.1" cy="175.9" r="4.8"/>
			<circle class="st5" cx="412.7" cy="169.5" r="4.8"/>
		</g>
		<g>
			<path class="st5" d="M272.8,172.8c-0.1-3.1-2.6-5.7-5.7-5.8v0h-42.3v0c-3.2,0.1-5.7,2.6-5.8,5.8h0v42.3h0
				c0.1,3.2,2.6,5.7,5.8,5.8v0h42.3v0c3.2-0.1,5.7-2.6,5.8-5.8h0L272.8,172.8L272.8,172.8z M232.4,186.1c-3.1,0-5.6-2.5-5.6-5.6
				c0-3.1,2.5-5.6,5.6-5.6c3.1,0,5.6,2.5,5.6,5.6C238,183.6,235.5,186.1,232.4,186.1z M259.4,213c-3.1,0-5.6-2.5-5.6-5.6
				c0-3.1,2.5-5.6,5.6-5.6c3.1,0,5.6,2.5,5.6,5.6C265,210.5,262.5,213,259.4,213z"/>
		</g>
		<g>
			<path class="st5" d="M197.3,178.3L197.3,178.3c0-1.7-1.4-3.1-3.1-3.1l0,0l0,0h-63.1c-1.7,0-3.1,1.4-3.1,3.1l0,0v31.5l0,0v0
				c0,1.7,1.4,3.1,3.1,3.1h63.1l0,0h0c1.7,0,3.1-1.4,3.1-3.1v0h0L197.3,178.3z M185.4,182.5v-2.7c0-0.3,0.3-0.6,0.6-0.6
				c0,0,0,0,0.1,0v0h6.6v0c0,0,0,0,0,0c0.3,0,0.6,0.3,0.6,0.6v6.7l0,0c0,0.3-0.3,0.6-0.6,0.6c0,0,0,0,0,0v0H190l0,0
				c-0.3,0-0.6-0.3-0.6-0.6l0,0v-3.3h-3.3v0c0,0,0,0-0.1,0C185.7,183.1,185.4,182.8,185.4,182.5L185.4,182.5L185.4,182.5z
				 M139.9,205.5v2.7c0,0.3-0.3,0.6-0.6,0.6c0,0,0,0-0.1,0v0h-6.6v0c0,0,0,0,0,0c-0.3,0-0.6-0.3-0.6-0.6v-6.7l0,0
				c0-0.3,0.3-0.6,0.6-0.6c0,0,0,0,0,0v0h2.7h0c0.3,0,0.6,0.3,0.6,0.6l0,0v3.3h3.3v0c0,0,0,0,0.1,0
				C139.6,204.9,139.9,205.2,139.9,205.5L139.9,205.5L139.9,205.5z M139.9,179.8v2.7v0c0,0.3-0.3,0.6-0.6,0.6l0,0H136v3.3h0
				c0,0,0,0,0,0.1c0,0.3-0.3,0.6-0.6,0.6l0,0l0,0h-2.7c-0.3,0-0.6-0.3-0.6-0.6c0,0,0,0,0-0.1h0v-6.6h0c0,0,0,0,0,0
				c0-0.3,0.3-0.6,0.6-0.6h6.7C139.7,179.2,139.9,179.4,139.9,179.8C139.9,179.8,139.9,179.8,139.9,179.8L139.9,179.8z M162.7,208.9
				c-8.2,0-14.9-6.7-14.9-14.9c0-8.2,6.7-14.9,14.9-14.9s14.9,6.7,14.9,14.9S170.9,208.9,162.7,208.9z M193.4,201.7v6.6h0
				c0,0,0,0,0,0c0,0.3-0.3,0.6-0.6,0.6h-6.7c-0.3,0-0.6-0.3-0.6-0.6c0,0,0,0,0,0h0v-2.7v0c0-0.3,0.3-0.6,0.6-0.6l0,0h3.3v-3.3h0
				c0,0,0,0,0-0.1c0-0.3,0.3-0.6,0.6-0.6l0,0h2.7C193.1,201,193.4,201.3,193.4,201.7C193.4,201.6,193.3,201.6,193.4,201.7
				L193.4,201.7z"/>
			<path class="st5" d="M162.7,183.1c-6,0-10.9,4.9-10.9,10.9c0,2.3,0.7,4.4,1.9,6.2v-0.1c0-0.5,0.3-0.9,0.6-1.1l4.5-2.1l1.8-0.8
				c-0.8-0.5-1.4-1.2-1.9-2.1c-0.4-0.8-0.6-1.7-0.6-2.6c0-0.6,0.1-1.1,0.2-1.6c0.6-2.2,2.3-3.8,4.4-3.8c2.1,0,3.9,1.7,4.4,3.9
				c0.1,0.5,0.2,0.9,0.2,1.4c0,0.9-0.2,1.7-0.5,2.5c-0.4,0.9-1.1,1.7-1.9,2.2l1.8,0.9l4.3,2.1c0.4,0.2,0.6,0.6,0.6,1.1v0.1
				c1.2-1.8,1.9-3.9,1.9-6.2C173.6,188,168.7,183.1,162.7,183.1z"/>
		</g>
		<g>
			<path class="st5" d="M305.9,167.7l4.2,47.4l19,5.3l19-5.3l4.2-47.4L305.9,167.7L305.9,167.7z M343.6,178.9l-0.3,2.9l-0.1,1.3h0
				h-14h0h-8.2l0.5,6h7.7h0h11.9h1.6l-0.1,1.6l-1.4,15.3l-0.1,1l-11.9,3.3l0,0l0,0l-11.9-3.3l-0.8-9.1h2.7h3.1l0.4,4.6l6.5,1.7l0,0
				v0l6.5-1.8l0.7-7.5h-7.1h0h-13l-1.4-16l-0.1-1.6h14.6h0h14.5L343.6,178.9z"/>
		</g>
		<g>
			<path class="st5" d="M518.3,193v-10.2h0c0-1.7-1.4-3.1-3.1-3.1v0h-9.6c0,0-0.1,0-0.1,0c0,0-0.1,0-0.1,0h-0.2v0
				c-2.2-0.2-4-2-4-4.2c0-1,0.3-1.9,0.9-2.6h-0.1c0.6-1,0.9-2.1,0.9-3.2c0-3.6-2.9-6.5-6.5-6.5c-3.6,0-6.5,2.9-6.5,6.5
				c0,1.2,0.3,2.3,0.9,3.2h-0.1c0.5,0.7,0.9,1.6,0.9,2.6c0,2.3-1.8,4.1-4,4.2v0h-11.5v0c-1.7,0-3.1,1.4-3.1,3.1c0,0,0,0.1,0,0.1
				v10.6h0c0,1,0.8,1.8,1.8,1.8c0.2,0,0.3,0,0.5-0.1c0.9-0.4,2-0.6,3.1-0.6c4.3,0,7.7,3.5,7.7,7.7c0,4.3-3.5,7.7-7.7,7.7
				c-1.1,0-2.1-0.2-3-0.6l0,0c-0.2-0.1-0.4-0.1-0.6-0.1c-1,0-1.8,0.8-1.8,1.8c0,0.1,0,0.2,0,0.3h0v10.2c0,0,0,0.1,0,0.1
				c0,1.7,1.4,3.1,3.1,3.1c0.1,0,0.2,0,0.3,0h10.5c1,0,1.8-0.8,1.8-1.8c0-0.2,0-0.4-0.1-0.6c0,0,0,0,0,0c0,0,0-0.1,0-0.1h0
				c-0.2-0.7-0.3-1.4-0.3-2.2c0-4.3,3.5-7.7,7.7-7.7c4.3,0,7.7,3.5,7.7,7.7c0,0.8-0.1,1.5-0.3,2.2h0c-0.1,0.2-0.1,0.4-0.1,0.7
				c0,1,0.8,1.8,1.8,1.8c0,0,0,0,0,0h10.1c1.7,0,3.1-1.4,3.1-3.1h0v-10.4h0c-0.1-0.9-0.8-1.6-1.8-1.6v-0.1c-0.6,0.2-1.3,0.3-2,0.3
				c-4.3,0-7.7-3.5-7.7-7.7c0-4.3,3.5-7.7,7.7-7.7c0.7,0,1.4,0.1,2,0.3v-0.1c0,0,0,0,0,0c0.8,0,1.5-0.5,1.7-1.3h0.1L518.3,193
				C518.3,193.1,518.3,193.1,518.3,193C518.3,193.1,518.3,193.1,518.3,193z"/>
		</g>
		<g>
			<path class="st5" d="M578.9,163.9c-17.1,0-30.9,13.8-30.9,30.9c0,13.7,8.9,25.2,21.1,29.3c1.5,0.3,2.1-0.7,2.1-1.5
				c0-0.7,0-2.7,0-5.3c-8.6,1.9-10.4-4.1-10.4-4.1c-1.4-3.6-3.4-4.5-3.4-4.5c-2.8-1.9,0.2-1.9,0.2-1.9c3.1,0.2,4.7,3.2,4.7,3.2
				c2.8,4.7,7.2,3.4,9,2.6c0.3-2,1.1-3.4,2-4.1c-6.9-0.8-14.1-3.4-14.1-15.3c0-3.4,1.2-6.1,3.2-8.3c-0.3-0.8-1.4-3.9,0.3-8.2
				c0,0,2.6-0.8,8.5,3.2c2.5-0.7,5.1-1,7.7-1c2.6,0,5.3,0.4,7.7,1c5.9-4,8.5-3.2,8.5-3.2c1.7,4.3,0.6,7.4,0.3,8.2
				c2,2.2,3.2,4.9,3.2,8.3c0,11.9-7.2,14.5-14.1,15.3c1.1,1,2.1,2.8,2.1,5.7c0,4.1,0,7.5,0,8.5c0,0.8,0.6,1.8,2.1,1.5
				c12.3-4.1,21.1-15.7,21.1-29.3C609.8,177.7,596,163.9,578.9,163.9z"/>
		</g>
		<g>
			<path class="st11" d="M702.9,172.9l-3.1,3.1l-3,3l-3.8,3.8c-2,0.1-4-0.6-5.6-2.1c-1.5-1.5-2.2-3.6-2.1-5.6l3.8-3.8l3-3l3.1-3.1
				c0.2-0.2,0.2-0.5,0-0.7c0,0-0.1-0.1-0.1-0.1l0,0c0,0,0,0,0,0c0,0-0.1,0-0.1,0c-2.1-0.9-4.5-1.5-6.9-1.5
				c-9.5,0-17.1,7.7-17.1,17.1c0,1.8,0.3,3.5,0.8,5.2l-17.9,17.9c-6,0.1-10.8,5-10.8,11c0,6.1,4.9,11,11,11c6,0,10.9-4.8,11-10.8
				l17.9-17.9c1.6,0.5,3.4,0.8,5.2,0.8c9.5,0,17.1-7.7,17.1-17.1c0-2.5-0.5-4.8-1.5-6.9c0,0,0-0.1,0-0.1c0,0,0,0,0,0l0,0
				c0,0,0-0.1-0.1-0.1C703.5,172.7,703.1,172.7,702.9,172.9z M658.6,214.1c0,2.5-2,4.5-4.5,4.5s-4.5-2-4.5-4.5c0-2.5,2-4.5,4.5-4.5
				S658.6,211.6,658.6,214.1z"/>
		</g>
		<g class="st12">
			<path class="st5" d="M-53.5,273.2C-53.5,273.1-53.5,273.1-53.5,273.2c0-0.9-0.3-1.6-0.8-2.2l0,0l-6.2-10.8c-0.2-0.9-1-1.5-2-1.5
				c-0.1,0-0.1,0-0.2,0v0h-43.9v0c0,0,0,0,0,0c-0.8,0-1.4,0.4-1.7,1l0,0l-6.5,11.3l0,0c-0.5,0.6-0.8,1.3-0.8,2.1c0,0,0,0.1,0,0.1
				v38.2c0,0,0,0.1,0,0.1c0,1.8,1.4,3.2,3.2,3.2c0,0,0.1,0,0.1,0h55.4c0,0,0.1,0,0.1,0c1.8,0,3.3-1.4,3.3-3.2c0,0,0-0.1,0-0.1
				L-53.5,273.2L-53.5,273.2z M-73.9,292.6l-9.8,13.8c-0.2,0.3-0.5,0.4-0.8,0.4c0,0,0,0,0,0c-0.3,0-0.6-0.1-0.8-0.4l-9.9-13.8
				c-0.2-0.3-0.2-0.7-0.1-1c0.2-0.3,0.5-0.5,0.8-0.5h4.6l0-12.4c0-0.5,0.4-1,1-1h8.6c0.5,0,1,0.4,1,1v12.4h4.6
				c0.4,0,0.7,0.2,0.8,0.5C-73.7,292-73.7,292.3-73.9,292.6z M-109.6,269.8l4.2-7.2h41.8l4.2,7.2H-109.6z"/>
		</g>
		<g class="st10">
			<path class="st5" d="M-139.8,260.5c-0.1-1.4-1.3-2.4-2.6-2.4h-55.8v0c-1.4,0-2.4,1.1-2.6,2.4h0v44.7h0.1c0.2,1.2,1.3,2.1,2.5,2.1
				v0h9.2v5.3c0,1.5,1.2,2.7,2.7,2.7c0.9,0,1.7-0.5,2.2-1.2l6.8-6.8h34.9c1.3,0,2.4-0.9,2.6-2.1h0.1L-139.8,260.5L-139.8,260.5z
				 M-187.4,287.2c-2.4,0-4.6-1.9-4.6-5.3c0-3.9,2.1-7.3,5.3-9.6l0,0c0.1,0,0.2-0.1,0.3-0.1c0.1,0,0.2,0.1,0.3,0.1l0,0l2.1,1.4l0,0
				c0.2,0.1,0.3,0.3,0.3,0.5c0,0.2-0.1,0.4-0.3,0.5l0,0c0,0,0,0,0,0c0,0,0,0,0,0c-1.6,0.9-3.4,3-3.8,4.8c0.2-0.1,0.6-0.2,1-0.2
				c2,0,3.5,1.5,3.5,3.7C-183.3,285.4-185.2,287.2-187.4,287.2z M-176.9,287.2c-2.4,0-4.6-1.9-4.6-5.3c0-3.9,2.1-7.3,5.3-9.6l0,0
				c0.1,0,0.2-0.1,0.3-0.1c0.1,0,0.2,0.1,0.3,0.1l0,0l2.1,1.4l0,0c0.2,0.1,0.3,0.3,0.3,0.5c0,0.2-0.1,0.4-0.3,0.5l0,0c0,0,0,0,0,0
				c0,0,0,0,0,0c-1.6,0.9-3.4,3-3.8,4.8c0.2-0.1,0.6-0.2,1-0.2c2,0,3.5,1.5,3.5,3.7C-172.8,285.4-174.7,287.2-176.9,287.2z
				 M-164.3,292.9L-164.3,292.9c-0.1,0-0.2,0.1-0.3,0.1c-0.1,0-0.2-0.1-0.3-0.1l0,0l-2.1-1.4l0,0c-0.2-0.1-0.3-0.3-0.3-0.5
				c0-0.2,0.1-0.4,0.3-0.5l0,0c0,0,0,0,0,0c0,0,0,0,0,0c1.6-0.9,3.4-3,3.8-4.8c-0.2,0.1-0.6,0.2-1,0.2c-2,0-3.5-1.5-3.5-3.7
				c0-2.2,1.9-4.1,4.1-4.1c2.4,0,4.6,1.9,4.6,5.3C-159,287.2-161.1,290.7-164.3,292.9z M-153.9,292.9L-153.9,292.9
				c-0.1,0-0.2,0.1-0.3,0.1c-0.1,0-0.2-0.1-0.3-0.1l0,0l-2.1-1.4l0,0c-0.2-0.1-0.3-0.3-0.3-0.5c0-0.2,0.1-0.4,0.3-0.5l0,0
				c0,0,0,0,0,0c0,0,0,0,0,0c1.6-0.9,3.4-3,3.8-4.8c-0.2,0.1-0.6,0.2-1,0.2c-2,0-3.5-1.5-3.5-3.7c0-2.2,1.9-4.1,4.1-4.1
				c2.4,0,4.6,1.9,4.6,5.3C-148.5,287.2-150.7,290.7-153.9,292.9z"/>
		</g>
		<g>
			<path class="st5" d="M465.5,261.2c-0.1-1-0.9-1.8-1.9-1.8v0h-41.9c-1,0-1.9,0.8-2,1.8h0v10.4h17.7c0.9,0,1.7,0.7,1.8,1.6h0v23.2
				h8.7l5.1,5.1c0.4,0.5,1,0.9,1.7,0.9c1.1,0,2-0.9,2-2v-4h6.9v0c0.9,0,1.7-0.7,1.9-1.6h0L465.5,261.2L465.5,261.2z"/>
			<path class="st5" d="M433.4,275.6H396v0c-0.9,0-1.6,0.7-1.7,1.6h0v30h0c0.2,0.8,0.9,1.4,1.7,1.4v0h6.2v3.6c0,1,0.8,1.8,1.8,1.8
				c0.6,0,1.2-0.3,1.5-0.8l4.6-4.6h23.4c0.9,0,1.6-0.6,1.8-1.4h0v-30h0C435.1,276.3,434.3,275.6,433.4,275.6z"/>
		</g>
		<g>
			<path class="st5" d="M367.5,284.6c-2.8-10.3-11.5-17.5-21.5-17.5c-7,0-13.5,3.5-17.8,9.5c-1.2-0.3-2.4-0.4-3.6-0.4
				c-9.4,0-17.1,8.4-17.1,18.6c0,3.7,1,7.3,2.9,10.3c0.4,0.7,1.2,1.1,2,1.1h64.1c0.8,0,1.5-0.4,1.9-1c1.6-2.3,2.4-5,2.4-7.7
				C380.8,289.9,374.6,283.7,367.5,284.6z"/>
		</g>
		<g>
			<path class="st5" d="M285.7,284.9l-13.3-13.3l-0.1,0.1c-3.7-3.4-8.6-5.5-14-5.5c-6.1,0-11.6,2.6-15.3,6.9l-12.3,12.3l0,0
				c-0.3,0.4-0.5,0.9-0.5,1.4c0,0.7,0.3,1.3,0.8,1.6l13.4,13.4l0,0c3.7,3.4,8.6,5.5,14,5.5c6.1,0,11.5-2.6,15.3-6.8l0,0l12.3-12.3
				c0.1,0,0.1-0.1,0.1-0.1l0,0l0,0c0.3-0.4,0.6-0.9,0.6-1.4C286.7,285.9,286.3,285.2,285.7,284.9z M258.4,300.6
				c-7.7,0-13.9-6.2-13.9-13.9c0-7.7,6.2-13.9,13.9-13.9c7.7,0,13.9,6.2,13.9,13.9C272.3,294.4,266,300.6,258.4,300.6z"/>
			<circle class="st5" cx="258.4" cy="286.8" r="6.7"/>
		</g>
		<g>
			<path class="st5" d="M195.4,307.3l-2.3-1.2c-0.2-0.1-0.4,0-0.5,0.1l-0.9,1.8c0,0.1-0.1,0.2,0,0.3c0,0.1,0.1,0.2,0.2,0.2l2.3,1.2
				c0.1,0,0.1,0,0.2,0c0.1,0,0.2-0.1,0.3-0.2l0.9-1.8c0-0.1,0.1-0.2,0-0.3C195.6,307.5,195.5,307.4,195.4,307.3z"/>
			<path class="st5" d="M195.5,265.7l-2.4-1.4c-0.2-0.1-0.4,0-0.5,0.1l-1,1.7c0,0.1-0.1,0.2,0,0.3c0,0.1,0.1,0.2,0.2,0.2l2.4,1.4
				c0.1,0,0.1,0,0.2,0c0.1,0,0.2-0.1,0.3-0.2l1-1.7c0-0.1,0.1-0.2,0-0.3C195.6,265.8,195.6,265.7,195.5,265.7z"/>
			<path class="st5" d="M190.7,304.9l-2.7-1.4v-38.9l1.3,0.8c0.1,0,0.1,0,0.2,0c0.1,0,0.2-0.1,0.3-0.2l1-1.7c0-0.1,0.1-0.2,0-0.3
				c0-0.1-0.1-0.2-0.2-0.2l-1-0.6l-1.1-0.7c-0.5-0.3-1.1-0.2-1.4,0.2l-9.6,5.2l-9.7-5.2c0,0,0,0,0,0c0,0,0,0-0.1,0
				c-0.1,0-0.2,0-0.3-0.1c-0.1,0-0.2-0.1-0.3-0.1c-0.1,0-0.2,0-0.3,0.1c-0.1,0-0.2,0-0.3,0.1c0,0,0,0-0.1,0c0,0,0,0,0,0l-9.7,5.2
				l-9.7-5.2c-0.4-0.2-1-0.2-1.4,0c-0.4,0.2-0.7,0.6-0.7,1v42.4c0,0.4,0.2,0.8,0.6,1l10.4,5.6c0,0,0,0,0,0c0,0,0,0,0.1,0
				c0.2,0.1,0.4,0.1,0.7,0.1c0.2,0,0.5,0,0.7-0.1c0,0,0,0,0.1,0c0,0,0,0,0,0l9.7-5.3l9.7,5.3c0,0,0,0,0,0c0,0,0,0,0.1,0
				c0.2,0.1,0.4,0.1,0.7,0.1c0.2,0,0.5,0,0.7-0.1c0,0,0,0,0.1,0c0,0,0,0,0,0l9.6-5.2l0.8,0.3l0.7,0.4c0.1,0,0.1,0,0.2,0
				c0.1,0,0.2-0.1,0.3-0.2l0.9-1.8C191,305.2,190.9,304.9,190.7,304.9z M156.9,309.4l-9-4.9v-39.7l9,4.9V309.4z M177.7,309.3
				l-10.4-5.6v-39.6l10.4,5.6V309.3z"/>
			<path class="st5" d="M199.9,291.7h-2c-0.2,0-0.3,0.2-0.3,0.4v4.2c0,0.2,0.2,0.3,0.3,0.3h2c0.2,0,0.4-0.2,0.4-0.3v-4.2
				C200.2,291.9,200.1,291.7,199.9,291.7z"/>
			<path class="st5" d="M199.9,308.4h-2c-0.1,0-0.1,0-0.2,0.1l-0.3,0.2c-0.1,0-0.1,0.1-0.1,0.1l-0.9,1.8c0,0.1-0.1,0.2,0,0.3
				c0,0.1,0.1,0.2,0.2,0.2l1.2,0.7c0.3,0.2,0.7,0.3,1,0.3c0.7,0,1.5-0.4,1.5-1.6v-1.5C200.2,308.5,200.1,308.4,199.9,308.4z"/>
			<path class="st5" d="M199.2,267.9l-1.4-0.8c-0.2-0.1-0.4,0-0.5,0.1l-1,1.7c0,0.1-0.1,0.2,0,0.3c0,0.1,0.1,0.2,0.2,0.2l1.1,0.6
				v1.2c0,0.2,0.2,0.3,0.3,0.3h2c0.2,0,0.4-0.2,0.4-0.3v-1.5C200.2,268.5,199.3,267.9,199.2,267.9z"/>
			<path class="st5" d="M199.9,275h-2c-0.2,0-0.3,0.2-0.3,0.4v4.2c0,0.2,0.2,0.4,0.3,0.4h2c0.2,0,0.4-0.2,0.4-0.4v-4.2
				C200.2,275.2,200.1,275,199.9,275z"/>
			<path class="st5" d="M199.9,300h-2c-0.2,0-0.3,0.2-0.3,0.3v4.2c0,0.2,0.2,0.4,0.3,0.4h2c0.2,0,0.4-0.2,0.4-0.4v-4.2
				C200.2,300.2,200.1,300,199.9,300z"/>
			<path class="st5" d="M199.9,283.4h-2c-0.2,0-0.3,0.2-0.3,0.4v4.2c0,0.2,0.2,0.4,0.3,0.4h2c0.2,0,0.4-0.2,0.4-0.4v-4.2
				C200.2,283.5,200.1,283.4,199.9,283.4z"/>
		</g>
		<g>
			<g>
				<path class="st5" d="M90.3,257.3c-0.6,0-1.1,0.5-1.1,1.1c0,0.1,0,0.1,0,0.2h0v24.9c0,0.6,0.5,1.1,1.1,1.1h24.9v0
					c0.1,0,0.1,0,0.2,0c0.6,0,1.1-0.5,1.1-1.1C116.3,269,104.6,257.4,90.3,257.3z"/>
			</g>
			<g>
				<path class="st5" d="M110.3,289.4c0-0.6-0.5-1.1-1.1-1.1H86.4c-0.6,0-1.1-0.5-1.1-1.1v-22.8h0c0-0.1,0-0.1,0-0.2
					c0-0.6-0.5-1.1-1.1-1.1c0,0,0,0-0.1,0v0c-0.1,0-0.2,0-0.3,0c-14.6,0-26.4,11.8-26.4,26.4s11.8,26.4,26.4,26.4
					s26.4-11.8,26.4-26.4C110.3,289.6,110.3,289.6,110.3,289.4C110.3,289.5,110.3,289.5,110.3,289.4z"/>
			</g>
		</g>
		<g>
			<path class="st5" d="M-6.9,266.9l9.3,9.3c0,0,0.1,0.1,0.1,0.1l0.1,0.1l0,0c0.3,0.2,0.6,0.4,1,0.4c0.9,0,1.6-0.7,1.6-1.6
				c0-0.6-0.3-1.1-0.8-1.4l-9.3-9.3c-0.3-0.3-0.7-0.6-1.2-0.6c-0.9,0-1.6,0.7-1.6,1.6C-7.6,266.1-7.3,266.6-6.9,266.9z"/>
			<path class="st5" d="M3.6,299.2v-19.8h-21.3c-0.1,0-0.2,0-0.3,0.1l-8.7-5l0,0c-0.3-0.1-0.6-0.2-0.9-0.2c-1.1,0-2,0.9-2,2
				c0,0.7,0.4,1.4,0.9,1.7l0,0l8.8,5.1c-0.3,1.5-0.5,3.3-0.5,5.3c0,4.2,0.9,7.7,2.1,8.7l-5,8.6c-0.4,0.5-0.6,1.1-0.6,1.7
				c0,1.5,1.2,2.8,2.8,2.8c0.9,0,1.7-0.4,2.2-1.1l0,0l5.8-10.1l5.8,10.1l0,0c0.5,0.7,1.3,1.1,2.2,1.1c1.5,0,2.8-1.2,2.8-2.8
				c0-0.6-0.2-1.2-0.6-1.7l-3.8-6.5c2,0.1,4.1,0.2,6.3,0.2C1,299.2,2.4,299.2,3.6,299.2z"/>
			<path class="st5" d="M17.6,297.1c0.9-0.5,1.7-2.4,2.1-5L6.8,279.3v18L2,305.6c-0.4,0.5-0.6,1.1-0.6,1.7c0,1.5,1.2,2.8,2.8,2.8
				c0.9,0,1.7-0.4,2.2-1.1l0,0l5.8-10.1l5.8,10.1l0,0c0.5,0.7,1.3,1.1,2.2,1.1c1.5,0,2.8-1.2,2.8-2.8c0-0.6-0.2-1.2-0.6-1.7
				L17.6,297.1z"/>
			<path class="st5" d="M32.1,280.1c0-0.7-0.3-1.2-0.8-1.6l-3.1-3.1v-3.2c0-1.2-0.7-2.2-1.7-2.8l-4-2.3l0,0
				c-0.3-0.2-0.7-0.3-1.1-0.4l-1.9-3.4l-4,7l-6.5,6.5l11,11c0-0.8-0.1-1.7-0.1-2.4l2.2-2.2h6.2h1.6v0l1.7-1.7l0,0
				C31.9,281.2,32.1,280.7,32.1,280.1z"/>
		</g>
		<g>
			<path class="st5" d="M601.4,255.3c-12.4,0-22.4,10-22.4,22.4c0,5,1.7,9.6,4.4,13.4l14.3,24.8c0.1,0.2,0.2,0.3,0.3,0.5l0,0.1l0,0
				c0.7,1,1.9,1.7,3.3,1.7c1.2,0,2.3-0.6,3-1.4l0,0l0.1-0.2c0.2-0.3,0.4-0.6,0.5-0.9l14-24.3c2.8-3.8,4.5-8.4,4.5-13.5
				C623.7,265.3,613.7,255.3,601.4,255.3z M601.1,289c-6.1,0-11-4.9-11-11c0-6.1,4.9-11,11-11c6.1,0,11,4.9,11,11
				S607.2,289,601.1,289z"/>
		</g>
		<g>
			<path class="st5" d="M540.6,299.5C540.5,299.5,540.5,299.4,540.6,299.5L540.6,299.5l-21.4-37l0,0c-0.2-0.3-0.4-0.5-0.7-0.6l0,0
				l-8.7-5v0c-0.4-0.2-1-0.3-1.5-0.1l0,0l-0.2,0.1c0,0,0,0,0,0c0,0,0,0,0,0l-16.8,9.7c-0.5,0.3-0.8,0.8-0.8,1.4l0,0V278l0,0
				c0,0.3,0,0.7,0.2,1c0,0,0,0,0,0.1l0,0l21.3,36.8c0,0,0,0.1,0.1,0.1c0.4,0.8,1.4,1,2.2,0.6l0,0l25.7-14.9l0,0
				C540.8,301.3,541,300.3,540.6,299.5z M504.8,270.3c-1.5,0.8-3.3,0.3-4.2-1.1c-0.8-1.5-0.3-3.3,1.1-4.2c1.5-0.8,3.3-0.3,4.2,1.1
				C506.8,267.6,506.3,269.5,504.8,270.3z"/>
		</g>
		<g>
			<circle class="st11" cx="666" cy="311.3" r="4.7"/>
			<circle class="st11" cx="698.8" cy="311.3" r="4.7"/>
			<path class="st11" d="M698.1,290.8c1.1,0,2-0.6,2.5-1.6l0,0l11.6-20l0,0c0.2-0.4,0.3-0.7,0.3-1.2c0-1.5-1.2-2.7-2.7-2.7l0,0
				h-11.6h-22.7h-8.3v-5.1l0,0c0-1.5-1.2-2.7-2.7-2.7l0,0l0,0h-15v0c-0.1,0-0.1,0-0.2,0c-1.4,0-2.5,1.1-2.7,2.4h0v2.7l0,0
				c0,1.5,1.2,2.7,2.7,2.7c0.1,0,0.1,0,0.2,0v0h9.8V300h0c0,1.5,1.2,2.7,2.7,2.7c0,0,0,0,0,0l0,0h47v-0.1c1.3-0.1,2.3-1.1,2.5-2.3h0
				v-0.4c0,0,0,0,0,0c0,0,0,0,0,0v-2.4c0,0,0,0,0,0c0-1.5-1.1-2.6-2.6-2.7v0h-41.8v-4L698.1,290.8L698.1,290.8z"/>
		</g>
		<g>
			<path class="st5" d="M-177.9,379.2c0.7-0.5,1.4-1,2-1.7c-2.1-3.2-3.4-7.1-3.4-11.2c0-2.8,0.5-5.4,1.5-7.8c-1.5-1-3.2-1.6-5-1.6
				c-5.6,0-10.2,5.3-10.2,11.9c0,4.6,2.2,8.6,5.5,10.5l-13.8,6.4c-0.9,0.4-1.4,1.4-1.4,2.5v10.9c0,1.5,1,2.6,2.3,2.6h9.1v-11.5
				c0-3,1.6-5.6,4.2-6.8L-177.9,379.2z"/>
			<path class="st5" d="M-139.5,387.3l-11.9-5.7l-5-2.4c2.2-1.4,4-3.5,5.2-6.1c0.9-2,1.5-4.4,1.5-6.8c0-1.4-0.2-2.7-0.5-4
				c-1.5-6.2-6.3-10.7-12.1-10.7c-5.7,0-10.4,4.4-12,10.4c-0.4,1.4-0.6,2.8-0.6,4.3c0,2.6,0.6,5.1,1.7,7.2c1.2,2.5,3,4.5,5.2,5.8
				l-4.8,2.2l-12.3,5.7c-1.1,0.5-1.8,1.7-1.8,3.1v11.5v2.1c0,1.8,1.3,3.3,2.8,3.3h43.7c1.6,0,2.8-1.5,2.8-3.3v-2.1v-11.5
				C-137.8,389-138.5,387.8-139.5,387.3z"/>
		</g>
		<path class="st5" d="M-51.2,371.3c-0.2-0.6-0.8-1.1-1.5-1.1H-75l-7.6-21.5c-0.2-0.6-0.8-1.1-1.5-1.1c-0.7,0-1.3,0.4-1.5,1.1
			l-7.6,21.5h-22.3c-0.7,0-1.3,0.4-1.5,1.1c-0.2,0.6,0,1.3,0.5,1.8l17.4,13.8l-7.8,22.1c-0.2,0.6,0,1.3,0.5,1.8
			c0.5,0.4,1.2,0.5,1.8,0.1l20.5-12.3l20.5,12.3c0.3,0.2,0.5,0.2,0.8,0.2c0.4,0,0.7-0.1,1-0.4c0.5-0.4,0.7-1.1,0.5-1.8l-7.8-22.1
			l17.4-13.8C-51.2,372.7-51,372-51.2,371.3z"/>
		<g>
			<path class="st5" d="M26,349.7L26,349.7l0-3.2c0-0.8-0.6-1.4-1.4-1.4h-1.9l0,0H-0.1l0,0h-1.4L-22,365.7v1.9v0.8v41.9v1.9
				c0,0.8,0.6,1.4,1.4,1.4h1.3h42.7h1.3c0.8,0,1.4-0.6,1.4-1.4v-1.9h0V349.7z M-14.1,405.8v-37.4h14c0.8,0,1.4-0.6,1.4-1.4v-14h16.8
				v52.8H-14.1z"/>
		</g>
		<g class="st12">
			<path class="st5" d="M103.4,353.6H72.7v0c-1.1,0-1.9,0.9-1.9,2v47.5c0,1.1,0.8,1.9,1.9,2v0h30.7c1.1,0,2-0.9,2-2v-47.5
				C105.4,354.5,104.5,353.6,103.4,353.6z M88.2,403.1c-1.1,0-1.9-0.9-1.9-1.9c0-1.1,0.9-1.9,1.9-1.9s1.9,0.9,1.9,1.9
				C90.1,402.2,89.2,403.1,88.2,403.1z M97.5,397.2H78.7v-35.7h18.8L97.5,397.2L97.5,397.2z"/>
		</g>
		<g>
			<path class="st5" d="M197,356.7c-6-6-15.6-6.2-21.8-0.6l0,0l-8,8c-1.5,1.5-2.5,3.1-3.3,4.9c-1.5,0.7-3,1.6-4.3,2.7l0,0l-8,8
				c-6.2,6.2-6.2,16.2,0,22.4c6.2,6.2,16.2,6.2,22.4,0l8-8l0,0c1.2-1.3,2.1-2.8,2.7-4.3c1.8-0.8,3.4-1.9,4.9-3.3l8-8l0,0
				C203.1,372.2,203,362.7,197,356.7z M168.5,396.4L168.5,396.4c-3.1,3.1-8.2,3.1-11.3,0c-3.1-3.1-3.1-8.2,0-11.3l0,0l5.8-5.8
				c0.7,2.6,2,5.1,4.1,7.2c2.1,2.1,4.6,3.4,7.2,4.1L168.5,396.4z M172.8,380.8c-1.4-1.4-2.2-3.3-2.3-5.1c1.9,0.1,3.7,0.9,5.1,2.3
				c1.4,1.4,2.2,3.3,2.3,5.1C176.1,383,174.3,382.2,172.8,380.8z M191.8,373.2l-0.5,0.5l0,0h0l-5.8,5.8c-0.7-2.6-2-5.1-4.1-7.2
				c-2.1-2.1-4.6-3.4-7.2-4.1l5.8-5.8c0,0,0,0,0,0l0,0l0.5-0.5l0,0c3.1-2.6,7.8-2.5,10.8,0.5S194.4,370,191.8,373.2L191.8,373.2z"/>
		</g>
		<g>
			<path class="st5" d="M282.4,348.3C282.4,348.3,282.4,348.3,282.4,348.3L282.4,348.3h-58.2l0,0c-1.1,0-2,0.9-2,2v58.2
				c0,1.1,0.9,2,2,2l0,0h0c0,0,0,0,0,0s0,0,0,0h58.2l0,0c0,0,0,0,0,0c1.1,0,2-0.9,2-2v-58.2C284.4,349.2,283.5,348.3,282.4,348.3z
				 M230.1,356.3h46.3v46.3h-46.3V356.3z"/>
			<path class="st5" d="M298.1,390.5h-2.3v-6.1c0-0.3-0.2-0.5-0.5-0.5h-4.2c-0.3,0-0.5,0.2-0.5,0.5v6.1h-2.3c-0.2,0-0.3,0.1-0.4,0.3
				c-0.1,0.2-0.1,0.3,0,0.5l4.9,6.8c0.1,0.1,0.2,0.2,0.4,0.2c0,0,0,0,0,0c0.2,0,0.3-0.1,0.4-0.2l4.9-6.8c0.1-0.1,0.1-0.3,0-0.5
				C298.4,390.6,298.2,390.5,298.1,390.5z"/>
			<path class="st5" d="M288.3,368.3h2.3v6.1c0,0.3,0.2,0.5,0.5,0.5l4.2,0c0.3,0,0.5-0.2,0.5-0.5v-6.1h2.3c0.2,0,0.3-0.1,0.4-0.3
				c0.1-0.2,0.1-0.3,0-0.5l-4.9-6.8c-0.1-0.1-0.2-0.2-0.4-0.2c0,0,0,0,0,0c-0.2,0-0.3,0.1-0.4,0.2l-4.9,6.8c-0.1,0.1-0.1,0.3,0,0.5
				C288,368.2,288.2,368.3,288.3,368.3z"/>
			<circle class="st5" cx="242.9" cy="365.1" r="3.9"/>
			<path class="st5" d="M250.4,370.1L250.4,370.1l-14.1,0v0c-1,0-1.8,0.8-1.8,1.8h0v11.1h0c0,0.4,0.2,0.8,0.5,1.2
				c0.6,0.6,1.7,0.6,2.3,0c0.3-0.3,0.5-0.7,0.5-1.2h0v-7.7v-0.1h0c0-0.3,0.2-0.5,0.5-0.5s0.5,0.2,0.5,0.5h0v0.1v5v15.3
				c0,1.1,0.9,1.9,1.9,1.9c1.1,0,1.9-0.9,1.9-1.9v-10.3h0c0-0.3,0.2-0.5,0.5-0.5s0.5,0.2,0.5,0.5h0v10.3c0,1.1,0.9,1.9,1.9,1.9
				c1.1,0,1.9-0.9,1.9-1.9v-10.3v-5.1v-5v-0.1c0-0.3,0.2-0.5,0.5-0.5c0.3,0,0.5,0.2,0.5,0.5v0.1v7.7h0c0,0.4,0.2,0.8,0.5,1.2
				c0.6,0.6,1.7,0.6,2.3,0c0.3-0.3,0.5-0.7,0.5-1.2h0v-11.1C252,371,251.3,370.2,250.4,370.1z"/>
			<circle class="st5" cx="263" cy="365.1" r="3.9"/>
			<path class="st5" d="M270.5,370.1L270.5,370.1l-14.1,0v0c-1,0-1.8,0.8-1.8,1.8h0v11.1h0c0,0.4,0.2,0.8,0.5,1.2
				c0.6,0.6,1.7,0.6,2.3,0c0.3-0.3,0.5-0.7,0.5-1.2h0v-7.7v-0.1h0c0-0.3,0.2-0.5,0.5-0.5c0.3,0,0.5,0.2,0.5,0.5h0v0.1v5v15.3
				c0,1.1,0.9,1.9,1.9,1.9c1.1,0,1.9-0.9,1.9-1.9v-10.3h0c0-0.3,0.2-0.5,0.5-0.5s0.5,0.2,0.5,0.5h0v10.3c0,1.1,0.9,1.9,1.9,1.9
				c1.1,0,1.9-0.9,1.9-1.9v-10.3v-5.1v-5v-0.1c0-0.3,0.2-0.5,0.5-0.5c0.3,0,0.5,0.2,0.5,0.5v0.1v7.7h0c0,0.4,0.2,0.8,0.5,1.2
				c0.6,0.6,1.7,0.6,2.3,0c0.3-0.3,0.5-0.7,0.5-1.2h0v-11.1C272.1,371,271.4,370.2,270.5,370.1z"/>
		</g>
		<g>
			<path class="st5" d="M334.5,372c0-4.4-3.6-8-8-8s-8,3.6-8,8c0,4.4,3.6,8,8,8S334.5,376.5,334.5,372z"/>
			<path class="st5" d="M366.6,365.6c-4.4,0-8,3.6-8,8c0,4.4,3.6,8,8,8c4.4,0,8-3.6,8-8C374.6,369.2,371,365.6,366.6,365.6z"/>
			<path class="st5" d="M359.3,382.5c-0.6-0.7-1.4-1.5-2.3-2.3c-2.4-3.1-6.2-5.2-10.5-5.2c-3.8,0-7.2,1.6-9.6,4.2
				c-1.4,1.2-2.6,2.4-3.4,3.3l-0.5,0.6c-2.4,3-5.4,6.6-5.4,12.9c0,5.8,4.7,10.5,10.5,10.5c3.3,0,6.3-1.5,8.3-4.1
				c2,2.6,5,4.1,8.3,4.1c5.8,0,10.5-4.7,10.5-10.5c0-6.2-3-9.9-5.4-12.9L359.3,382.5z"/>
			<circle class="st5" cx="347.1" cy="361.1" r="8.9"/>
		</g>
		<g>
			<path class="st7" d="M417,409.8c-2.2,0-4.9-0.7-7.7-3.5c-3.7-3.7-4.1-7.2-3.9-9.5c0.3-2.7,1.7-5.3,4.1-7.8l23.3-23.3
				c6.5-6.5,10.8-4.1,12.8-2.1c2.4,2.4,4,6.6-2.2,12.8l-21.5,21.5l-4.2-4.2l21.5-21.5c3.3-3.3,2.5-4.1,2.2-4.4
				c-0.3-0.3-1.2-1.2-4.5,2.1l-23.3,23.3c-1,1-2.3,2.6-2.4,4.3c-0.2,1.5,0.5,3.1,2.2,4.7c2,2,3.6,1.8,4.1,1.7c1.4-0.2,3-1.1,4.5-2.7
				c2-2,25.8-25.8,27.7-27.7c2.3-2.3,3.7-4.5,4.3-6.5c0.8-3-0.2-5.9-3-8.7c-3-3-7.9-6.2-15.3,1.2l-25.5,25.5c-1.2,1.2-3,1.2-4.2,0
				c-1.2-1.2-1.2-3,0-4.2l25.5-25.5c7.9-7.9,16.5-8.3,23.7-1.2c5.5,5.5,5.5,10.9,4.6,14.5c-0.9,3.1-2.8,6.1-5.8,9.1
				c-1.8,1.8-25.7,25.7-27.7,27.7c-2.5,2.5-5.2,4-7.9,4.4C417.9,409.8,417.5,409.8,417,409.8z"/>
		</g>
		<g>
			<path class="st7" d="M554.7,401.7L554.7,401.7L528.4,356l0,0c-0.6-1.2-1.8-2-3.2-2c-1.5,0-2.7,0.9-3.3,2.1l-17.5,30.4l-4.3-7.4
				l0,0c-0.3-0.6-0.9-1.1-1.7-1.1c-0.8,0-1.4,0.5-1.7,1.1l-12.5,21.7h-0.1v0.1l-1.2,2.1c-0.1,0.2-0.2,0.4-0.2,0.7
				c0,0.6,0.5,1.1,1.1,1.1c0.1,0,0.2,0,0.3-0.1v0.1h13.5h15.9H553v0c1.1-0.1,1.9-1,1.9-2.1C554.9,402.3,554.8,402,554.7,401.7z"/>
		</g>
		<g>
			<g>
				<path class="st11" d="M633.1,403.7c2.2,0,3.9-1.8,3.9-3.9V359c0-2.2-1.8-3.9-3.9-3.9h-56.3c-2.2,0-3.9,1.8-3.9,3.9v40.7
					c0,2.2,1.8,3.9,3.9,3.9H633.1z M629.1,395.8h-48.4V363h48.4V395.8z"/>
			</g>
			<g>
				<g>
					<polygon class="st11" points="616.7,379.6 607.2,385.1 597.7,390.6 597.7,379.6 597.7,368.7 607.2,374.1 					"/>
				</g>
			</g>
		</g>
		<g>
			<path class="st13" d="M712.1,357.7L712.1,357.7c-0.3-0.3-0.8-0.4-1.2-0.4c-0.4,0-0.8,0.2-1.1,0.4l0,0l-0.1,0.1c0,0,0,0,0,0
				l-3.3,2.9c0,0-0.1,0-0.1,0.1l0,0l0,0c-0.3,0.3-0.5,0.7-0.5,1.2c0,0.6,0.3,1.2,0.8,1.5c3.9,3.9,6.2,9.3,6.2,15.3
				c0,12-9.8,21.8-21.8,21.8c-12,0-21.8-9.8-21.8-21.8c0-6,2.4-11.4,6.3-15.4l0,0c0.4-0.3,0.6-0.8,0.6-1.3c0-0.5-0.2-0.9-0.5-1.2
				l0,0l0,0c0,0-0.1,0-0.1-0.1l-3.3-2.9c0,0,0,0,0,0l-0.1-0.1l0,0c-0.3-0.3-0.7-0.4-1.1-0.4c-0.6,0-1.2,0.4-1.5,0.9
				c-5.1,5.3-8.2,12.6-8.2,20.5c0,16.4,13.3,29.7,29.7,29.7s29.7-13.3,29.7-29.7C720.8,370.5,717.5,363.1,712.1,357.7z"/>
			<path class="st13" d="M688.8,389.5L688.8,389.5L688.8,389.5L688.8,389.5L688.8,389.5h4.4l0,0c0,0,0,0,0,0c1,0,1.7-0.8,1.7-1.7
				l0,0l0,0v-35.6h0c0,0,0,0,0,0c0-1-0.8-1.7-1.7-1.7c0,0,0,0,0,0l0,0h-4.4l0,0c-1,0-1.7,0.8-1.7,1.7c0,0,0,0,0,0l0,0v35.6l0,0l0,0
				C687.1,388.7,687.9,389.5,688.8,389.5z"/>
		</g>
	</g>
</g>
<g id="Layer_2">
	<g class="st0">
		<path class="st14" d="M548.9,279.8c0,4.9-4,8.8-8.8,8.8H223.3c-4.9,0-8.8-4-8.8-8.8v-177c0-4.9,4-8.8,8.8-8.8h316.8
			c4.9,0,8.8,4,8.8,8.8V279.8z"/>
	</g>
	<g>
		<path class="st15" d="M285.8,221.3c-0.8-1.1-8.6,5.4-31,8c-4.6,0.5-8.8,0.8-13.5,0.9c3.2-1.4,5.6-5.3,5.6-5.3
			c-3,2.5-10.4,4.1-14.7,4.9l0.3-2.2l-3.6,2.2c-6.2-0.3-11.2-0.8-16.8-1.5c1.9-1.2,1.8-3,1.8-3c-2.4,1.3-8.4,1.5-9.8,1.5l-18.4-3.6
			l10.3,52.3c0,0,8.5,0.8,15.9,0.5c0.1,0,1.4,0,2.1-0.1c2.1-0.1,4.1-0.3,6.1-0.6c0.2,0,0.4,0,0.6,0c6.7-0.6,14.8,1,14.8,1
			c-0.8-1.4-2.2-2.4-3.1-2.9c6.9-1.5,11.1-3,11.1-3c9.1,6.9,20.2,0.4,20.2,0.4c0.4,1.5-0.4,6.1-0.4,6.1c-0.8,1.9-4.9,9.5-4.9,9.5
			c11-1.5,19.2-13.6,19.2-13.6l0.3,6.5c0,0,8.6-7,11.4-18.5c0.1-0.3,0.1-0.6,0.2-0.9l0.9,0.8c0.1-2.6-0.4-4.8-0.8-6.1
			c-1.2-7.8-9-10.4-9-10.4C285.8,241.5,286.6,222.3,285.8,221.3z"/>
		<g class="st0">
			<g class="st3">
				<path d="M289.4,209.2c0.7,0.5,1.9,1.3,2.6,1.8c0.7,0.5,0.3,2.4-0.7,3.9l-9.8,14.6c-1.1,1.6-2.2,2.7-2.6,2.6
					c-0.4-0.2-2.7-1.7-3.4-2.2c-0.7-0.5-0.3-2.4,0.7-3.9l9.8-14.6C287.1,209.7,288.6,208.7,289.4,209.2z"/>
			</g>
			<g class="st16">
				<g>
					<polygon id="SVGID_3_" points="276.4,232.4 292.1,209.7 294.5,213.3 280.8,232.9 					"/>
				</g>
				<g>
					<defs>
						<polygon id="SVGID_1_" points="276.4,232.4 292.1,209.7 294.5,213.3 280.8,232.9 						"/>
					</defs>
					<clipPath id="SVGID_2_">
						<use xlink:href="#SVGID_1_"  style="overflow:visible;"/>
					</clipPath>
					<g class="st17">
						<path d="M289.4,209.3c0.7,0.5,1.9,1.3,2.6,1.8s0.3,2.4-0.7,3.9l-9.8,14.6c-1.1,1.6-2.2,2.7-2.6,2.6s-2.7-1.7-3.4-2.2
							c-0.7-0.5-0.3-2.4,0.7-3.9l9.8-14.6C287.1,209.8,288.6,208.8,289.4,209.3z"/>
					</g>
				</g>
			</g>
		</g>
		<path class="st18" d="M559.6,288.5c0,1.8-1.9,3.2-4.2,3.2H208c-2.3,0-4.2-1.4-4.2-3.2l0,0c0-1.8,1.9-3.2,4.2-3.2h347.4
			C557.7,285.3,559.6,286.8,559.6,288.5L559.6,288.5z"/>
		<path class="st19" d="M283.5,217.8c-0.8-1.1-8.6,5.4-31,8c-4.6,0.5-8.8,0.8-13.5,0.9c3.2-1.4,5.6-5.3,5.6-5.3
			c-3,2.5-10.4,4.1-14.7,4.9l0.3-2.2l-3.6,2.2c-6.2-0.3-11.2-0.8-16.8-1.5c1.9-1.2,1.8-3,1.8-3c-2.4,1.3-8.4,1.5-9.8,1.5l-18.4-3.6
			l10.3,52.3c0,0,8.5,0.8,15.9,0.5c0.1,0,1.4,0,2.1-0.1c2.1-0.1,4.1-0.3,6.1-0.6c0.2,0,0.4,0,0.6,0c6.7-0.6,14.8,1,14.8,1
			c-0.8-1.4-2.2-2.4-3.1-2.9c6.9-1.5,11.1-3,11.1-3c9.1,6.9,20.2,0.4,20.2,0.4c0.4,1.5-0.4,6.1-0.4,6.1c-0.8,1.9-4.9,9.5-4.9,9.5
			c11-1.5,19.2-13.6,19.2-13.6l0.3,6.5c0,0,8.6-7,11.4-18.5c0.1-0.3,0.1-0.6,0.2-0.9l0.9,0.8c0.1-2.6-0.4-4.8-0.8-6.1
			c-1.2-7.8-9-10.4-9-10.4C283.5,238,284.3,218.9,283.5,217.8z"/>
		<path class="st20" d="M174.4,146.7c18.2-2,30.4-16.2,30.4-16.2s2,12.6-6.6,24.1c-6,8.1-16.9,11.9-22.8,13.4
			C175.5,160.8,175.3,153.7,174.4,146.7z"/>
		<path class="st21" d="M174.4,146.7c18.2-2,30.4-16.2,30.4-16.2s-6.3,21.6-29.5,26.5C175.1,153.5,174.8,150.1,174.4,146.7z"/>
		<ellipse class="st5" cx="126.9" cy="373.1" rx="113.7" ry="12.9"/>
		<path class="st22" d="M198,262c3.3-1.5,5.6-7.9,5.6-7.9c-10.9-5.8-14.5-20.1-14.5-20.1c3-1.5,8.1-8.1,8.1-8.1l-6.3-4.6
			c-7.5-1.7-12.2-3.1-12.2-3.1c-2.4,3.5-6.4,10.4-9.5,18c0.5,11.6,3.9,25.4,6,33c2,0.8,4.2,1.5,6.9,1.9c5.7,0.8,11.3,1.2,16.6,1.3
			c1.7-4.9,2.3-10.9,2.3-10.9L198,262z"/>
		<path class="st23" d="M190.6,365.2c-0.3-1.2-0.6-2.4-0.8-3.4c0-3.6-0.7-8.2-3.6-12.5c1,0.3,2.2,0.7,2.2,0.7
			c-3.7-4.5-7.4-7-9.8-8.2c0.6-0.6,2.4-0.9,2.4-0.9c-2.1-0.8-8.6-1.8-13.9-2.6l2.2-1.3l-9.5,0.2c-4.4-1.2-9.7-2.1-16-2.6
			c0.5-1,1.9-2.1,1.9-2.1c-5.9-0.2-15.5,1.2-18.3,1.7c-0.9,0-1.9,0-2.9,0.1c0,0-14.9-6.9-15.1,8c-0.2,11.2,0.5,22.6,0.9,27.5
			c3.9-0.6,7.8-0.9,11.8-0.9c5.4-0.1,10.8-0.3,16.2-0.3c1.7,0,3.3,0,5,0.1c7.5-0.1,22.9,0.6,33.3,1.3l0-2.3l1-0.2h6.4l0.2-1.6
			c0-0.4,0-0.5,0-0.8C186.2,364.9,188.4,365.1,190.6,365.2z"/>
		<path class="st24" d="M184.1,365c1,0,1.9,0,2.9,0.1c-0.2-18.7-18.3-23-18.3-23C184.4,348.1,184.2,362.8,184.1,365z"/>
		<path class="st19" d="M197.1,111.3c-9.5-6.7-25.1-1.8-25.1-1.8l7-12.7l-16.9-2.4c0.9-7.6,7.7-15.6,7.7-15.6
			c-32-4.1-50.2,13.6-50.2,13.6c0.4-7.1,7.3-19.3,7.3-19.3c-28.8,8.2-46.2,35.3-46.2,35.3c-1.2-3.7-0.3-15.1-0.3-15.1
			s-13.2,13.3-18.4,31.5c-1.8,6.3-5.5,48.4-5.1,57.9c0,0-3.9-0.6-7.7,0.7c0,0,7.2,6.3,8.5,9.6c0.4,1.1,0.5,3.4,0.4,7.3
			c0,0-0.1,0-0.1,0c1.5,40.5-4.3,102.4,23.6,121.5c10.9,7.5,20.5,11.5,29.6,13.6l-3.3,0.5c44.8,9.9,55.4-1.4,59.9-7.1
			c1.7-2,2.4-3.7,2.4-3.7c0.9,1.7-0.2,5.4-0.2,5.4c1.5-0.9,5.6-5.9,8.4-10.5c2.8-4.6,3.6-15.5,3.6-15.5c1.6,0.7,2.8,3.8,2.8,3.8
			s1.5-3.9,1.5-9.1s-2.3-14.9-2.8-16.6c-0.5-1.7,0.2-4.8,1.1-7.1c0.7-1.8,1.7-7.1,1.7-7.1s-3.3,2.9-4.4,1.2
			c-1.1-1.8-1.7-8.5-1.7-8.5c3.3,0,8.7-5.5,8.7-5.5c-2.2-1.6-6.6-6.5-8-9.6c-1.4-3-0.3-17.1-0.3-17.1c2.5-0.2,5.1-4.5,5.1-4.5
			c-1.4-0.7-4.3-3.2-6.5-7.4c-1.2-2.3-0.3-10.9-1.7-18.7c0.1-5.1,0.8-16.1,4.4-19.5c0,0-1.7,0.6-3.3,1.6c1.9-15.1,2.5-30.1,6.5-40.8
			c4.2-7.9,10.8-14,10.8-14c-2.9,0.2-5.4,1.2-6.5,1.6C193.5,117,197.1,111.3,197.1,111.3z"/>
		<path class="st25" d="M176.7,274.9C176.7,274.9,176.7,274.9,176.7,274.9C176.7,274.9,176.6,274.9,176.7,274.9z"/>
		<ellipse class="st22" cx="154.1" cy="213.1" rx="8.2" ry="10.4"/>
		<ellipse class="st26" cx="154.2" cy="210.3" rx="8.1" ry="10.3"/>
		<path class="st27" d="M152.1,205.8c-0.1,0.3-0.1,0.5-0.1,0.8c0,1.4,0.9,2.6,2.1,2.6c1,0,1.9-0.9,2.1-2.1c0.7,0.9,1.1,2,1.1,3.3
			c0,2.7-1.7,4.9-3.9,4.9c-2.2,0-3.9-2.2-3.9-4.9C149.4,208.2,150.5,206.4,152.1,205.8z"/>
		<ellipse class="st22" cx="114.5" cy="213.1" rx="8.2" ry="10.4"/>
		<path class="st22" d="M123,350.7l-2.3,0c-8.4-0.2-14-1.3-22.4-0.6c-0.4,0-0.7,0.1-1.1,0.1c0.8-0.2,1.7-0.5,2.5-0.7
			c3.2-0.8,6.5-3.1,9.7-3.3c0.6-0.1,1.3,0.4,1.9,0.3l0.7-12.1c0,0-20.6-13-32.8-25.2s-18.3,8.2-18.3,8.2L58,345.9
			c-0.5,2.4-1.6,7.5-3.2,8.8c0,0,1,1,2.2,0.7l-1.6,14.5c0,0-0.3,7.7,5.1,7.7h11.5c0.3,1.1,0.7,0.2,1.1,0.2l16.4,0.9
			c0.9,0,1.4,0,1.4,0l16,0.2l0-2.5l9.2,0.5l1.3-3.6l13.8,0.1C132.1,357,128,351.4,123,350.7z"/>
		<ellipse class="st26" cx="114.6" cy="210.3" rx="8.1" ry="10.3"/>
		<path class="st27" d="M112.5,205c-0.1,0.3-0.1,0.5-0.1,0.8c0,1.4,0.9,2.6,2.1,2.6c1,0,1.9-0.9,2.1-2.1c0.7,0.9,1.1,2,1.1,3.3
			c0,2.7-1.7,4.9-3.9,4.9s-3.9-2.2-3.9-4.9C109.8,207.5,110.9,205.7,112.5,205z"/>
		<path class="st23" d="M117,184.4c0,0-9.2-4.4-14.4,3.7c0,0-0.5-8.1,6.9-9C116.9,178.3,117,184.4,117,184.4z"/>
		<path class="st20" d="M83.3,207.5c0,0,3.5-0.8,7-1.3c0.6,6,1.9,13.7,1.9,13.7l0,0.2c0.1,0.4,0.2,0.8,0.3,1.2
			c0.7,3,1.4,4.8,4.3,5.9c2.8,1.1,9.4,2,16.1,2.4c2.5,0.1,5.3,0,8.2-0.4c4.2-0.6,8.1-1.8,9.5-2.8c2.1-1.6,3.3-5.5,4-8.1l0.2-0.8
			c0.3-0.9,0.5-1.8,0.7-2.7c0.3-1.3,0.7-2.7,0.9-3.1c0.1-0.1,0.3-0.4,1.2-0.5c0.6-0.1,1.5-0.1,2.4,0c0.7,0.1,0.7,0.1,0.9,0.8
			c0.1,0.3,0.1,0.5,0.2,0.8c0,0.1,0.2,0.8,0.2,1.2c0.6,3.1,1.8,9.7,4.5,11.5c2.9,2,6.3,3,15.8,2.3c1.3-0.1,2.6-0.2,3.6-0.4
			c5.7-0.8,7.4-2.6,8.2-5c0.9-2.8,1.6-7.5,1.6-7.7c0.1-1,0.4-1.5,1-1.9c0.8-0.5,1.9-1.2,2-2.6l0-3.4c0-1.1-0.1-2.1-0.6-2.9
			c-0.3-0.5-0.8-0.8-1.4-0.9c-2.5-0.5-7.9-1.5-15.4-1.7c-3.3-0.1-6.5,0.1-9.8,0.6c-3,0.4-5.4,1-7.4,1.5c-0.4,0.1-0.7,0.2-1.1,0.3
			c-1.1,0.3-1.8,0.4-2.4,0.5c-1.2,0.2-1.9,0.1-4-0.2l-1-0.1c-0.9-0.1-2.1-0.3-3.7-0.6c-5.1-0.8-13.7-2.2-23.8-2.7
			c-7.7-0.4-14.1,0.2-17.8,0.8c0,0-3.9,0.5-7.3,1.9L83.3,207.5z M152.1,206.3c0.2,0,0.4-0.1,0.6-0.1l0.4-0.1
			c2.5-0.3,9.1-1.2,13.7-0.9c2.4,0.2,4.9,0.4,5.5,1.1c0,0.1,0.2,0.2,0.2,0.6c0.1,2.1-1.3,13-1.9,14c-0.7,1.1-3.5,2.7-8.9,3.2
			c-5.7,0.5-10.9,0-12.6-0.7c-1.4-0.6-1.8-0.8-2.8-4.7c-0.9-3.6-1.3-6.3-1.2-8.7C145.3,208.3,147.7,206.9,152.1,206.3z M96,205.7
			c0.3-0.1,0.7-0.1,1.2-0.2c3.5-0.5,11.2-1,14.8-0.9c4.6,0.2,15.8,1.8,18.3,2.9c1.9,0.8,1.8,1.6,1.6,3l0,0.1
			c-0.2,1.4-1.1,8.4-2.6,10.8c-1.4,2.3-1.9,2.9-6.4,3.6c-0.2,0-0.4,0.1-0.6,0.1c-4.8,0.7-13.6,0.8-18.5-0.1l-0.3-0.1
			c-5-1-6.8-1.4-7.3-2.9c-0.7-2.1-2-11.8-2.1-13.9C94.1,206.6,95.6,205.8,96,205.7z"/>
		<path class="st23" d="M113.6,172.6c0,0-8.5-4-12.4,3.7c0,0-1.3-6.7,4.8-8.4C112.1,166.3,113.6,172.6,113.6,172.6z"/>
		<path class="st23" d="M148.4,193.2c0,0,7.1-3.4,11.2,2.9c0,0,0.4-6.3-5.3-7C148.5,188.4,148.4,193.2,148.4,193.2z"/>
		<path class="st23" d="M151.1,182.8c0,0,6.6-3.1,9.6,2.9c0,0,1-5.2-3.7-6.5C152.2,177.9,151.1,182.8,151.1,182.8z"/>
		<path class="st22" d="M80.6,108.3c-1.2-3.7-0.3-15.1-0.3-15.1s-13.2,13.3-18.4,31.5c-1.8,6.3-5.5,48.4-5.1,57.9
			c0,0-3.9-0.6-7.7,0.7c0,0,3.4,3,5.9,5.9c0.9,4.1,0.6,10.6,0.6,10.6c-1.1-2.1-7.6-4.4-7.6-4.4c2.5,2.9,5.1,12.6,5.1,12.6l-4.9-0.2
			l6.7,8.4c2.9-1.5,13.3-1.4,13.3-1.4c1.2-14.5,3.5-19.3,8.1-30.2c9.1-15,12.4-20.1,12.4-20.1l-4.3-1.7c4.4-8.8,9.2-16,9.2-16
			c-2.9-0.3-7.8,0-7.8,0c0-3.9,4.7-15.6,4.7-15.6c-5.1,0.4-15.2,2.8-19.1,3.7c1.4-11.4,2.6-17.3,2.6-17.3
			c-0.7,4.5,4.5,10.7,4.5,10.7c6.8-19.2,37.6-40.5,43.2-44.4c2.1-5.6,5.1-10.9,5.1-10.9C98.1,81.1,80.6,108.3,80.6,108.3z"/>
		<path class="st20" d="M76.4,141.9c-0.7,0.1-3,0.4-3,0.4C52.7,145.4,36,130.5,36,130.5s-0.3,12.7,9.6,23
			c10,10.3,28.5,10.7,28.5,10.7c0.8,2.5,0,8.4,0,8.4s4.9-6.4,5.3-17.7C79.7,147,76.8,141.9,76.4,141.9"/>
		<path class="st21" d="M76.4,141.9c-0.7,0.1-3,0.4-3,0.4C52.7,145.4,36,130.5,36,130.5s11.8,26.8,43.4,22
			C79.4,152.5,79.9,147.4,76.4,141.9"/>
		<path class="st20" d="M152,234.7c0,0-5.8-0.2-7.4-1.6c0,0-12.7,5.6-23.3,2.3C121.3,235.3,137.3,253.1,152,234.7z"/>
		<path class="st28" d="M158.5,254.5c0,0-5-3.4-8-3.8c0,0-0.6,6.4-3.6,9.5c0,0-6.4-5.7-12.7-6.2c0,0-1.6,3.5-4.3,4.8l0,0
			c-1,0.6-2.1,1.2-3.3,1.4c0,0-3.6-2.2-4.7-6.2c0,0-0.3,8.4,4.9,13c0,0,4-2,6.9-5.1c0.9-0.9,1.8-1.8,2.2-2.6c0,0,9.3,6.6,9.7,10.4
			c0,0,6.7-6.6,9-11.6c0,0,4.5,1.4,5.8,2.3c0,0,3.6-5.9,4.4-11.3C165,249.2,160.7,253.4,158.5,254.5z"/>
		<path class="st29" d="M49,225.4c0,0,10.7-9,19.1-10.7l-8.2-3.2"/>
		<path class="st22" d="M119.1,332.5c3.4-0.2,6-1.8,6-1.8c-11.9-0.3-30.5-12.2-30.5-12.2L99,317c-4.2-0.4-13.6-5.6-13.6-5.6
			c-8-7.7-10.3-19.7-12.1-31.4l-1.4,1.1c-0.6-3.8,0.3-9.5,0.3-9.5l0.2,1.2c-0.8-8.7-0.4-12.8-0.4-12.8c-2.9,2.1-12.8,6.5-12.8,6.5
			s-4.2,17.5,11.4,44c21.3,33.5,73.9,29.1,73.9,29.1C140,339.3,130.7,337.4,119.1,332.5z"/>
		<path class="st19" d="M64.4,321.7c-0.7,1.9-1.1,3.7-1.3,5.1c0.5-0.9,1.1-1.9,1.9-2.7c1.4-1.5,3.3-3,3.8-5.1
			c0.4-1.5,0.4-3.2,1.1-4.7c0.7-1.6,1.8-2.9,2.9-4.3c0.5-0.7,0.9-1.4,1.3-2.1c0.1-0.2,0.2-0.5,0.3-0.7c0.4-1.1,0.7-2.2,0.5-3.4
			c-0.7-12.3-7-21.2-20.8-33.1c0,0,3-2.3,9.3-6.1c7.3-4.4,2.4-44.5-3.9-50.9c0,0.8-0.2,1.9-0.6,3.1c0,0-24.4,20.7-29.7,27.3
			c0,0,4.3,0.5,7.6,1.8c0,0-13.9,13.5-16.9,17.6c0,0,2-0.2,4.6,0.1c0,0-6.4,6.4-7.4,8.9c0,0,3.1-1.6,5.4-1.9c0,0-0.7,13.9,3.9,22.7
			c0,0,0.8-3.3,2.1-4.1c0,0,2.2,8.9,7,15.2C39.9,310.3,51.4,323.4,64.4,321.7z"/>
		<path class="st22" d="M57.4,334.5c2-1.7,3.6-3.9,4.9-6.2c0.8-1.5,1.5-3,2.7-4.2c1-1,2.1-2,2.9-3.2c-1.3,0.4-2.7,0.7-3.9,0.8
			c0,0-0.2,0-0.2,0v0c-12.2,1.4-23.2-11.9-27.6-17.6c-4.8-6.3-7.8-16.5-7.8-16.5c-1.3,0.8-2,4.8-2,4.8c-4.6-8.9-3.3-22.3-3.3-22.3
			c-2.3,0.3-5.3,1.8-5.3,1.8c1-2.5,7.9-8.6,7.9-8.6c-2.5-0.3-4.8,0-4.8,0c3-4.1,17-17.8,17-17.8c-3.3-1.3-7.9-1.5-7.9-1.5
			c22.1-22,28.5-25.7,28.5-25.7c0.5-1.7,1-3.7,1-4.6c-0.5-0.5-1.1-0.9-1.6-1l0.5,0.9l-22.1,8l5.1,3.6c0,0-23.1,18.3-29.4,25.9
			c0,0,7.4-0.5,9.1,0.3c0,0-12.9,11.7-15.2,15.2c0,0,4.8-0.5,6.6,0.8c0,0-8.1,4.3-9.4,12.9c0,0,4.6-1.3,6.1-1
			c0,0,10.6,20.3,19.3,28.3l-5.3-3.5c0,0,0.3,6.1,3.8,9.4c0,0-4.6-1-9.4-6.1c0,0,1,15.5,14.5,21.8l-3,0.3c0,0,12.4,7.6,28.7,0.8
			C57.6,330.2,58.3,332.7,57.4,334.5z"/>
		<path class="st30" d="M28.2,307.2c0,0,8.5,12.3,21.7,17.1c0,0-26.7,5.3-32.4-16.9c0,0,6.1,5.6,9.4,6.1c0,0-4.3-4.3-3.8-9.4
			C23.1,304.1,26,305.7,28.2,307.2z"/>
		<path class="st22" d="M276.4,243.7c0,0-1.9-1-3.7-1.4c3.7-4.7,5.5-10.4,5.5-10.4s-8.2,11.3-23.8,15.2l3.2,1.2
			c-3.8,0.6-9.9,0.1-11.5,0c-2.6,0.1-5.2,0.1-8.1-0.3c0,0-4.2,14.5,3.4,18.9c8.9,6.3,17.4,2.2,20.2,0.4c0,0-0.1,4.7-1.3,7
			c-1.1,2.3-4.1,8.6-4.1,8.6s11.2-7.2,13.3-13.3c2.2-6.1,2.5-11.2,2.5-11.2s4.1,7.6,3.6,17.4C275.8,275.9,292.8,252.8,276.4,243.7z"
			/>
		<path class="st30" d="M64.5,263.9c-1.8,1.1-3.7,2.2-5.5,3.3c-0.8,4.2-0.2,8.5-0.2,8.5c7-1,13.4-4.9,13.4-4.9l-0.3-10.9
			C70.4,260.9,67.3,262.5,64.5,263.9z"/>
		<path class="st30" d="M59.4,332.8c0,0,7.6-5.1,9.4-13.8c0,0,0.1-5.4,4.5-9.7c0,0-2.5,11.1-2.9,15.5c-0.4,4.4-4.9,14.7-12,17.1
			L59.4,332.8z"/>
		<path class="st31" d="M157.5,336.4c0,0-16.1,10.6-49.5,10.8l0.7-11.5C108.7,335.7,135,344.1,157.5,336.4z"/>
		<path class="st30" d="M277.4,236.1c0,0-7.1,7.7-14,9.5l3.3,0.7c0,0-16.4,5.6-23.1-0.6c0,0,16.1-0.9,19.5-1.9l-3.3-0.8
			c0,0,13.8-4.9,22-17.7c0,0,0.3-0.3,0.9-0.7C282.1,226.7,279.3,233.9,277.4,236.1z"/>
		<path class="st19" d="M103.9,359.9c-2.1-1.7-5.3-1.8-7-1.8c-0.5-0.1-1-0.1-1.5-0.1c0,0,5.5,5.5,5.5,20.7l5.8,0.1
			c0,0,1.6-12-3.9-17.8L103.9,359.9z"/>
		<path class="st19" d="M134.8,372.5c-1.1-1.5-1.9-4.2-2.2-5.1c-0.1-1.5-0.3-3.3-0.6-5l1.1,0.6c-0.6-3.3-2.7-6.4-3-6.8
			c-1.5-3.3-3.9-5.8-7.5-5.9l0.9-1.6c-2.2-0.5-3.8-0.9-6-0.9c-0.2,0-0.4,0-0.6,0.1c-0.4,0-0.8,0.1-1.2,0.1c-0.5,0.1-0.9,0.1-1.5,0.2
			c0,0,0-1.7,1.2-2.5c0,0-4.5,0.3-7.3,1.1c0.3-3.7,0.7-8,0.7-11.1c-1.9-0.4-4.4-0.9-7-1.5c-0.4-0.2-0.8-0.4-1.3-0.5
			c-7.8-1.5-21.9-6.8-21.9-6.8c-1,6.7-1.9,24.2-1.9,24.2h9.4c-2.1,1.1-3.4,2.2-3.4,2.2s0.8-0.1,9.6-1.3c8.8-1.2,14.4,3,14.4,3l0-0.2
			c0.7,0.4,3.1,2,5.1,6.1c0.3,1,1.9,6.9,0.9,8.9l1.5-0.6c0.3,2.2,0.5,4.7,0.4,7.6l6.5,0c0,0,0.1-8.8-1.8-15.8l1.8,0
			c-1-3.4-3.7-5.8-5.4-7c-0.5-0.4-1-0.7-1.5-1c0,0,12.8-1.6,13.4,20.2l2.2,0l5.7,0.3C135.1,373.2,135,372.8,134.8,372.5z M111.8,361
			c0.5,1,0.9,2.2,1.3,3.5L111.8,361z"/>
		<path class="st24" d="M179.9,360.8c-1.1-3.1-3.7-6-4.6-6.9c-6-8.4-16.2-9.2-16.2-9.2c18.6,4.4,17.4,22.7,17.4,22.7l1-0.2h2
			c-0.1-2.3-0.4-4.8-1-6.8L179.9,360.8z"/>
		<path class="st32" d="M528.6,280.4c0,0.8,0,2,0,2.7c0,0.8-1.8,1.4-3.7,1.4h-17.6c-1.9,0-3.5-0.3-3.6-0.6c-0.1-0.3-0.1-2.8-0.1-3.5
			c0-0.8,1.8-1.4,3.7-1.4h17.6C526.8,279,528.5,279.6,528.6,280.4z"/>
		<g>
			<defs>
				<polygon id="SVGID_4_" points="269.7,224.8 279.9,224.5 293.2,209.3 283,202.8 273.8,207.3 				"/>
			</defs>
			<clipPath id="SVGID_5_">
				<use xlink:href="#SVGID_4_"  style="overflow:visible;"/>
			</clipPath>
			<g class="st33">
				<path class="st26" d="M287.1,205.7c0.7,0.5,1.9,1.3,2.6,1.8c0.7,0.5,0.3,2.4-0.7,3.9l-9.8,14.6c-1.1,1.6-2.2,2.7-2.6,2.6
					c-0.4-0.2-2.7-1.7-3.4-2.2s-0.3-2.4,0.7-3.9l9.8-14.6C284.8,206.3,286.3,205.3,287.1,205.7z"/>
			</g>
		</g>
		<g>
			<defs>
				<polygon id="SVGID_6_" points="269.7,224.8 279.9,224.5 293.2,209.3 283,202.8 273.8,207.3 				"/>
			</defs>
			<clipPath id="SVGID_7_">
				<use xlink:href="#SVGID_6_"  style="overflow:visible;"/>
			</clipPath>
			<g class="st34">
				<g class="st3">
					<defs>
						<polygon id="SVGID_8_" points="274.1,229 289.8,206.3 292.2,209.9 278.5,229.5 						"/>
					</defs>
					<clipPath id="SVGID_9_">
						<use xlink:href="#SVGID_8_"  style="overflow:visible;"/>
					</clipPath>
					<g class="st35">
						<path d="M287.1,205.8c0.7,0.5,1.9,1.3,2.6,1.8c0.7,0.5,0.3,2.4-0.7,3.9l-9.8,14.6c-1.1,1.6-2.2,2.7-2.6,2.6
							c-0.4-0.2-2.7-1.7-3.4-2.2s-0.3-2.4,0.7-3.9l9.8-14.6C284.8,206.4,286.3,205.4,287.1,205.8z"/>
					</g>
				</g>
			</g>
			<path class="st36" d="M281.7,226.1c0,0-17.7-2.3-36.9,6.3c0,0,1.3-1.7,2.9-2.2l-1.4,0c0,0,14.2-8.4,36.4-5.6L281.7,226.1z"/>
			<g class="st37">
				<path class="st26" d="M498.7,280.8c0,0.9,0,2.3,0,3.2c0,0.9-1.7,1.6-3.6,1.6h-7.8c-1.9,0-3.5-0.3-3.5-0.7c0-0.4-0.1-3.2,0-4.1
					c0-0.9,1.7-1.6,3.6-1.6h7.8C497,279.2,498.7,279.9,498.7,280.8z"/>
			</g>
			<path class="st38" d="M445.6,217.6c-42.7-0.7-85.3,0.7-127.9,1.6c-7.3,0.2-7.4,3.6,0,3.5c42.5-0.9,85.2-2.3,127.9-1.6
				C453,221.1,453,217.7,445.6,217.6z"/>
		</g>
	</g>
</g>
<g id="Layer_4" class="st0">
	<text transform="matrix(1 0 0 1 287.5437 138.0535)" class="st3"><tspan x="0" y="0" class="st26 st39 st40">FOUNDATION </tspan><tspan x="10.2" y="38.4" class="st26 st39 st40">ICON FONTS</tspan></text>
</g>
<g id="Layer_5" class="st0">
	<g class="st3">
		<g>
			<path class="st26" d="M336.8,108.3C336.8,108.2,336.8,108.2,336.8,108.3c0-0.7-0.2-1.3-0.6-1.7l0,0l-5-8.6
				c-0.2-0.7-0.8-1.2-1.6-1.2c-0.1,0-0.1,0-0.2,0v0h-34.8v0c0,0,0,0,0,0c-0.6,0-1.1,0.3-1.4,0.8l0,0l-5.2,9l0,0
				c-0.4,0.4-0.6,1-0.6,1.7c0,0,0,0.1,0,0.1v30.3c0,0,0,0.1,0,0.1c0,1.4,1.1,2.6,2.6,2.6c0,0,0.1,0,0.1,0h44c0,0,0.1,0,0.1,0
				c1.4,0,2.6-1.1,2.6-2.6c0,0,0,0,0-0.1L336.8,108.3L336.8,108.3z M320.6,123.7l-7.8,11c-0.1,0.2-0.4,0.3-0.6,0.3c0,0,0,0,0,0
				c-0.2,0-0.5-0.1-0.6-0.3l-7.8-11c-0.2-0.2-0.2-0.5-0.1-0.8c0.1-0.3,0.4-0.4,0.7-0.4h3.7l0-9.8c0-0.4,0.3-0.8,0.8-0.8h6.8
				c0.4,0,0.8,0.3,0.8,0.8v9.9h3.7c0.3,0,0.5,0.2,0.7,0.4C320.8,123.2,320.8,123.5,320.6,123.7z M292.3,105.6l3.3-5.7h33.1l3.3,5.7
				H292.3z"/>
		</g>
		<g>
			<path class="st26" d="M459,135.4l-1.9-1c-0.1-0.1-0.3,0-0.4,0.1l-0.7,1.4c0,0.1,0,0.1,0,0.2c0,0.1,0.1,0.1,0.1,0.2l1.9,1
				c0,0,0.1,0,0.1,0c0.1,0,0.2-0.1,0.2-0.1l0.7-1.4c0-0.1,0-0.1,0-0.2C459.1,135.5,459,135.4,459,135.4z"/>
			<path class="st26" d="M459,102.3l-1.9-1.1c-0.1-0.1-0.3,0-0.4,0.1l-0.8,1.4c0,0.1,0,0.1,0,0.2c0,0.1,0.1,0.1,0.1,0.2l1.9,1.1
				c0,0,0.1,0,0.1,0c0.1,0,0.2,0,0.2-0.1l0.8-1.4c0-0.1,0-0.1,0-0.2C459.1,102.4,459.1,102.4,459,102.3z"/>
			<path class="st26" d="M455.2,133.4l-2.1-1.1v-30.9l1,0.6c0,0,0.1,0,0.1,0c0.1,0,0.2-0.1,0.2-0.1l0.8-1.4c0-0.1,0-0.1,0-0.2
				c0-0.1-0.1-0.1-0.1-0.2l-0.8-0.4l-0.9-0.6c-0.4-0.2-0.8-0.1-1.1,0.1l-7.6,4.1l-7.7-4.2c0,0,0,0,0,0c0,0,0,0-0.1,0
				c-0.1,0-0.2,0-0.3-0.1c-0.1,0-0.2-0.1-0.3-0.1c-0.1,0-0.2,0-0.3,0.1c-0.1,0-0.2,0-0.3,0.1c0,0,0,0,0,0c0,0,0,0,0,0l-7.7,4.2
				l-7.7-4.2c-0.3-0.2-0.8-0.2-1.1,0c-0.3,0.2-0.6,0.5-0.6,0.8v33.7c0,0.3,0.2,0.6,0.5,0.8l8.3,4.5c0,0,0,0,0,0c0,0,0,0,0.1,0
				c0.2,0.1,0.3,0.1,0.5,0.1c0.2,0,0.4,0,0.5-0.1c0,0,0,0,0,0c0,0,0,0,0,0l7.7-4.2l7.7,4.2c0,0,0,0,0,0c0,0,0,0,0,0
				c0.2,0.1,0.3,0.1,0.5,0.1c0.2,0,0.4,0,0.5-0.1c0,0,0,0,0,0c0,0,0,0,0,0l7.6-4.1l0.6,0.3l0.5,0.3c0,0,0.1,0,0.1,0
				c0.1,0,0.2-0.1,0.2-0.1l0.7-1.4C455.4,133.7,455.4,133.5,455.2,133.4z M428.4,137l-7.1-3.9v-31.5l7.1,3.9V137z M444.9,136.9
				l-8.2-4.5V101l8.2,4.5V136.9z"/>
			<path class="st26" d="M462.5,123h-1.6c-0.2,0-0.3,0.1-0.3,0.3v3.3c0,0.2,0.1,0.3,0.3,0.3h1.6c0.2,0,0.3-0.1,0.3-0.3v-3.3
				C462.8,123.1,462.7,123,462.5,123z"/>
			<path class="st26" d="M462.5,136.2h-1.6c0,0-0.1,0-0.1,0l-0.2,0.1c0,0-0.1,0.1-0.1,0.1l-0.7,1.4c0,0.1,0,0.1,0,0.2
				c0,0.1,0.1,0.1,0.1,0.2l1,0.5c0.3,0.1,0.6,0.2,0.8,0.2c0.6,0,1.2-0.3,1.2-1.3v-1.2C462.8,136.3,462.7,136.2,462.5,136.2z"/>
			<path class="st26" d="M462,104.1l-1.1-0.6c-0.1-0.1-0.3,0-0.4,0.1l-0.8,1.4c0,0.1,0,0.1,0,0.2c0,0.1,0.1,0.1,0.1,0.2l0.8,0.5v1
				c0,0.2,0.1,0.3,0.3,0.3h1.6c0.2,0,0.3-0.1,0.3-0.3v-1.2C462.8,104.5,462,104.1,462,104.1z"/>
			<path class="st26" d="M462.5,109.7h-1.6c-0.2,0-0.3,0.1-0.3,0.3v3.3c0,0.2,0.1,0.3,0.3,0.3h1.6c0.2,0,0.3-0.1,0.3-0.3V110
				C462.8,109.9,462.7,109.7,462.5,109.7z"/>
			<path class="st26" d="M462.5,129.6h-1.6c-0.2,0-0.3,0.1-0.3,0.3v3.3c0,0.2,0.1,0.3,0.3,0.3h1.6c0.2,0,0.3-0.1,0.3-0.3v-3.3
				C462.8,129.7,462.7,129.6,462.5,129.6z"/>
			<path class="st26" d="M462.5,116.4h-1.6c-0.2,0-0.3,0.1-0.3,0.3v3.3c0,0.2,0.1,0.3,0.3,0.3h1.6c0.2,0,0.3-0.1,0.3-0.3v-3.3
				C462.8,116.5,462.7,116.4,462.5,116.4z"/>
		</g>
		<g>
			<g>
				<path class="st26" d="M379.2,95.6c-0.5,0-0.8,0.4-0.8,0.8c0,0,0,0.1,0,0.1h0v19.8c0,0.5,0.4,0.8,0.8,0.8h19.8v0c0,0,0.1,0,0.1,0
					c0.5,0,0.8-0.4,0.8-0.8C399.8,105,390.6,95.8,379.2,95.6z"/>
			</g>
			<g>
				<path class="st26" d="M395.1,121.2c0-0.5-0.4-0.8-0.8-0.8h-18.2c-0.5,0-0.8-0.4-0.8-0.8v-18.1h0c0,0,0-0.1,0-0.1
					c0-0.5-0.4-0.8-0.8-0.8c0,0,0,0-0.1,0v0c-0.1,0-0.1,0-0.2,0c-11.6,0-21,9.4-21,21s9.4,21,21,21s21-9.4,21-21
					C395.1,121.3,395.1,121.3,395.1,121.2C395.1,121.2,395.1,121.2,395.1,121.2z"/>
			</g>
		</g>
		<g>
			<path class="st26" d="M414.8,156.7c-0.1-0.8-0.7-1.4-1.5-1.4v0H380c-0.8,0-1.5,0.6-1.6,1.4h0v8.3h14.1c0.7,0,1.3,0.6,1.4,1.3h0
				v18.4h6.9l4.1,4.1c0.3,0.4,0.8,0.7,1.3,0.7c0.9,0,1.6-0.7,1.6-1.6v-3.2h5.5v0c0.8,0,1.4-0.6,1.5-1.3h0L414.8,156.7L414.8,156.7z"
				/>
			<path class="st26" d="M389.3,168.1h-29.7v0c-0.7,0-1.3,0.6-1.4,1.3h0v23.8h0c0.1,0.6,0.7,1.1,1.4,1.1v0h4.9v2.8
				c0,0.8,0.6,1.4,1.4,1.4c0.5,0,0.9-0.3,1.2-0.6l3.6-3.6h18.6c0.7,0,1.3-0.5,1.4-1.1h0v-23.8h0C390.6,168.7,390,168.1,389.3,168.1z
				"/>
		</g>
		<g>
			<path class="st26" d="M337,175.3c-2.2-8.2-9.1-13.9-17.1-13.9c-5.6,0-10.7,2.8-14.1,7.6c-0.9-0.2-1.9-0.3-2.8-0.3
				c-7.5,0-13.6,6.6-13.6,14.8c0,2.9,0.8,5.8,2.3,8.2c0.3,0.6,0.9,0.9,1.6,0.9h50.9c0.6,0,1.2-0.3,1.5-0.8c1.2-1.8,1.9-3.9,1.9-6.1
				C347.5,179.5,342.6,174.5,337,175.3z"/>
		</g>
		<g>
			<path class="st26" d="M474.3,187.1C474.3,187.1,474.3,187,474.3,187.1L474.3,187.1l-17-29.4l0,0c-0.1-0.2-0.4-0.4-0.6-0.5l0,0
				l-6.9-4v0c-0.3-0.2-0.8-0.2-1.2-0.1l0,0l-0.1,0.1c0,0,0,0,0,0c0,0,0,0,0,0l-13.3,7.7c-0.4,0.2-0.6,0.7-0.7,1.1l0,0v8l0,0
				c0,0.3,0,0.5,0.2,0.8c0,0,0,0,0,0l0,0l16.9,29.2c0,0,0,0.1,0,0.1c0.4,0.6,1.1,0.8,1.7,0.5l0,0l20.4-11.8l0,0
				C474.5,188.5,474.7,187.7,474.3,187.1z M446,164c-1.2,0.7-2.7,0.3-3.3-0.9c-0.7-1.2-0.3-2.7,0.9-3.3c1.2-0.7,2.7-0.3,3.3,0.9
				C447.5,161.8,447.1,163.3,446,164z"/>
		</g>
	</g>
</g>
<g id="Layer_3" class="st0">
	<circle class="st41" cx="-396.7" cy="116.5" r="17.9"/>
	<circle class="st42" cx="-396.7" cy="163.4" r="17.9"/>
	<circle class="st43" cx="-396.7" cy="210.4" r="17.9"/>
	<circle class="st44" cx="-323.7" cy="119" r="17.9"/>
	<circle class="st45" cx="-323.7" cy="217" r="17.9"/>
	<circle class="st46" cx="-323.7" cy="266" r="17.9"/>
	<circle class="st47" cx="-323.7" cy="168" r="17.9"/>
</g>
<g id="Layer_7">
	<polygon class="st0" points="403,194.4 465.3,194.4 434.1,119.5 	"/>
	<polygon class="st48" points="540.5,280.8 500.8,280.8 479.4,227.3 389,227.3 367.6,280.8 327.8,280.8 434.1,41.9 	"/>
	<rect x="311.6" y="52.1" class="st26" width="169.8" height="248.5"/>
	<path class="st49" d="M389.2,1.4L219.3,62.2l26,225.3l143.8,80l143.8-80l26-225.3L389.2,1.4z M467.3,100H364.7v58.8h96.5v31.5
		h-96.5v94.1h-38.9v-216h141.6L467.3,100L467.3,100z"/>
	<g id="Layer_2_1_">
		<polyline class="st50" points="389.2,367.6 533,287.6 559,62.2 389.3,1.5 389.3,1.5 		"/>
		<polyline class="st51" points="389.3,1.5 389.2,1.4 219.3,62.2 245.3,287.6 389.2,367.6 		"/>
		<polyline class="st51" points="389.3,182.1 389.3,365.1 389.3,1.5 		"/>
		<line class="st52" x1="389.3" y1="1.5" x2="389.3" y2="182.1"/>
		<line class="st52" x1="389.2" y1="1.4" x2="219.3" y2="62.2"/>
	</g>
</g>
</svg>
